<svg width="34" height="26" viewBox="0 0 34 26" fill="none" xmlns="http://www.w3.org/2000/svg">
<g id="Group">
<g id="Group_2">
<path id="Vector" d="M10.6138 9.81588C10.5688 9.81588 10.5238 9.80588 10.4838 9.78088C10.3688 9.71087 10.3338 9.55584 10.4038 9.44083L14.1093 3.49994C14.3794 3.06988 14.2594 2.50979 13.8393 2.22475C13.6293 2.08473 13.3792 2.03472 13.1392 2.08473C12.8942 2.13474 12.6841 2.27476 12.5441 2.48479L8.56351 8.50069C8.4885 8.6157 8.33348 8.64571 8.22346 8.5707C8.10844 8.49569 8.07844 8.34066 8.15345 8.23065L12.129 2.20975C12.3391 1.8897 12.6641 1.67467 13.0392 1.59966C13.4142 1.52465 13.7943 1.59966 14.1093 1.80969C14.7544 2.23975 14.9395 3.09488 14.5244 3.75498L10.8238 9.70086C10.7738 9.77588 10.6938 9.81588 10.6138 9.81588Z" fill="#EE7532" stroke="#EE7532"/>
</g>
<g id="Group_3">
<path id="Vector_2" d="M6.3285 7.03048C6.27849 7.03048 6.22848 7.01548 6.18848 6.98547C6.07846 6.90546 6.05346 6.75544 6.12847 6.64042L9.74901 1.52966C10.2041 0.884565 11.0992 0.734543 11.7393 1.18961C12.1144 1.45465 12.3344 1.88971 12.3344 2.34978C12.3344 2.63983 12.2494 2.91487 12.0894 3.1449C12.0143 3.25992 11.8593 3.28492 11.7493 3.20991C11.6393 3.1349 11.6093 2.97988 11.6843 2.86986C11.7893 2.71984 11.8393 2.53981 11.8393 2.34978C11.8393 2.04474 11.6993 1.7647 11.4493 1.58967C11.0292 1.28963 10.4441 1.39464 10.1441 1.8147L6.52353 6.92547C6.48352 6.99548 6.40351 7.03048 6.3285 7.03048Z" fill="#EE7532" stroke="#EE7532"/>
</g>
<g id="Group_4">
<path id="Vector_3" d="M12.2743 11.5662C12.2293 11.5662 12.1843 11.5562 12.1443 11.5262C12.0293 11.4562 11.9943 11.3011 12.0643 11.1861L15.3898 5.89033C15.6598 5.46026 15.5398 4.90018 15.1198 4.61514C14.9097 4.47511 14.6597 4.42511 14.4197 4.47511C14.1746 4.52512 13.9646 4.66514 13.8246 4.87517C13.7496 4.99019 13.5945 5.0202 13.4845 4.94518C13.3695 4.87017 13.3395 4.71515 13.4145 4.60513C13.6245 4.28509 13.9496 4.07005 14.3246 3.99504C14.6947 3.92003 15.0798 3.99504 15.3948 4.20507C16.0399 4.63514 16.2249 5.49027 15.8099 6.15036L12.4794 11.4512C12.4344 11.5262 12.3544 11.5662 12.2743 11.5662Z" fill="#EE7532" stroke="#EE7532"/>
</g>
<g id="Group_5">
<path id="Vector_4" d="M2.91307 19.7474C2.87307 19.7474 2.83306 19.7374 2.79805 19.7174C2.67804 19.6524 2.63303 19.5024 2.69804 19.3824C2.80806 19.1723 2.92307 18.9823 3.02309 18.8123C3.26312 18.4072 3.31313 17.9572 3.17811 17.5371C3.0731 17.2371 2.99308 16.902 2.92807 16.647C2.433 14.5467 2.61303 13.0814 3.1081 11.1111C3.33313 10.221 3.51316 8.63078 3.66818 6.25542C3.69319 5.91037 3.83821 5.58532 4.08825 5.33028C4.34829 5.07025 4.66333 4.92022 5.00338 4.89022C5.40344 4.86021 5.7935 4.99023 6.09355 5.26527C6.38859 5.53531 6.56362 5.92037 6.56862 6.32043L6.64363 10.5511C8.68893 11.9213 8.35888 14.3966 8.33888 14.5016C8.31888 14.6367 8.18886 14.7267 8.05884 14.7117C7.92382 14.6917 7.8288 14.5667 7.84881 14.4316C7.86381 14.3366 8.15885 12.0763 6.26357 10.8961C6.19356 10.8511 6.14855 10.7761 6.14855 10.6911L6.06854 6.33043C6.06354 6.06039 5.95353 5.81036 5.7535 5.63033C5.55347 5.4503 5.29843 5.36029 5.03339 5.38029C4.81836 5.39529 4.60832 5.50031 4.4333 5.67033C4.26827 5.84036 4.16826 6.05539 4.15326 6.28543C3.99823 8.69579 3.81321 10.311 3.58317 11.2312C3.0931 13.1715 2.93308 14.5217 3.40315 16.532C3.46315 16.777 3.54317 17.097 3.64318 17.3821C3.82321 17.9372 3.7582 18.5373 3.46815 19.0323C3.35314 19.2274 3.24312 19.4124 3.13811 19.6174C3.0881 19.7024 3.00309 19.7474 2.91307 19.7474Z" fill="#EE7532" stroke="#EE7532"/>
</g>
<g id="Group_6">
<path id="Vector_5" d="M9.20867 22.0677C9.18367 22.0677 9.15866 22.0627 9.13366 22.0577C9.00364 22.0177 8.93363 21.8776 8.97363 21.7476L9.28368 20.7975C9.35369 20.5875 9.49871 20.4174 9.69374 20.3124C13.7844 18.1271 13.5793 15.0516 13.4943 13.7364L13.4843 13.5814C13.4793 13.5364 13.4893 13.4914 13.5143 13.4514L16.1447 8.56066C16.2297 8.39563 16.2747 8.22061 16.2747 8.05058C16.2747 7.84555 16.2097 7.56551 15.8897 7.37548C15.7246 7.27547 15.5546 7.24546 15.3946 7.28547C15.1646 7.34548 14.9395 7.54051 14.7645 7.84055C14.6945 7.95557 14.5445 7.99557 14.4294 7.92556C14.3144 7.85555 14.2744 7.70553 14.3444 7.59051C14.5895 7.18045 14.9195 6.90041 15.2796 6.8104C15.5696 6.73539 15.8697 6.78539 16.1447 6.95042C16.5448 7.18545 16.7698 7.58551 16.7698 8.05058C16.7698 8.30062 16.7048 8.55566 16.5798 8.79569L13.9844 13.6264L13.9894 13.7114C14.0844 15.1216 14.3044 18.4171 9.92878 20.7525C9.84376 20.7975 9.77875 20.8725 9.75375 20.9575L9.4437 21.9076C9.4087 21.9977 9.30868 22.0677 9.20867 22.0677Z" fill="#EE7532" stroke="#EE7532"/>
</g>
<g id="Group_7">
<path id="Vector_6" d="M8.55374 25.0732C8.52374 25.0732 8.49373 25.0682 8.46373 25.0532C8.33871 25.0032 8.2787 24.8581 8.32871 24.7331L9.36886 22.1377L2.54785 19.6274L1.47268 22.2577C1.42268 22.3828 1.27766 22.4428 1.15264 22.3928C1.02762 22.3428 0.96761 22.1977 1.01762 22.0727L2.18279 19.2273C2.2328 19.1023 2.37282 19.0423 2.49784 19.0873L9.77892 21.7727C9.84393 21.7977 9.89394 21.8427 9.91894 21.9027C9.94395 21.9627 9.94895 22.0327 9.92394 22.0927L8.78877 24.9231C8.74377 25.0182 8.65375 25.0732 8.55374 25.0732Z" fill="#EE7532" stroke="#EE7532"/>
</g>
<g id="Group_8">
<path id="Vector_7" d="M23.3861 9.81589C23.3061 9.81589 23.2261 9.77588 23.1761 9.70087L19.4705 3.75998C19.0554 3.09989 19.2405 2.24976 19.8856 1.81469C20.2006 1.60466 20.5807 1.52965 20.9607 1.60466C21.3358 1.67967 21.6558 1.89471 21.8659 2.21475L25.8415 8.23565C25.9165 8.35067 25.8865 8.50069 25.7715 8.5757C25.6564 8.65071 25.5064 8.62071 25.4314 8.50569L21.4558 2.48479C21.3158 2.27976 21.1058 2.13474 20.8607 2.08473C20.6157 2.03473 20.3656 2.08473 20.1606 2.22475C19.7355 2.5098 19.6155 3.06488 19.8906 3.49994L23.5961 9.44583C23.6661 9.56085 23.6311 9.71087 23.5161 9.78588C23.4761 9.80588 23.4311 9.81589 23.3861 9.81589Z" fill="#EE7532" stroke="#EE7532"/>
</g>
<g id="Group_9">
<path id="Vector_8" d="M27.6715 7.03056C27.5965 7.03056 27.5165 6.99555 27.4715 6.92554L23.851 1.81478C23.5509 1.39472 22.9708 1.2947 22.5458 1.58975C22.3007 1.76477 22.1557 2.04481 22.1557 2.34986C22.1557 2.53989 22.2107 2.71992 22.3107 2.86994C22.3858 2.97995 22.3608 3.13498 22.2457 3.20999C22.1357 3.285 21.9807 3.26 21.9057 3.14498C21.7457 2.90994 21.6606 2.6349 21.6606 2.34986C21.6606 1.88979 21.8857 1.45473 22.2557 1.18969C22.9008 0.73462 23.796 0.889643 24.246 1.52974L27.8666 6.6405C27.9466 6.75052 27.9166 6.90554 27.8066 6.98555C27.7716 7.01556 27.7215 7.03056 27.6715 7.03056Z" fill="#EE7532" stroke="#EE7532"/>
</g>
<g id="Group_10">
<path id="Vector_9" d="M21.7258 11.5662C21.6458 11.5662 21.5657 11.5262 21.5157 11.4512L18.1902 6.15537C17.7752 5.49527 17.9602 4.64014 18.6053 4.21008C18.9203 4.00005 19.3054 3.92504 19.6755 4.00005C20.0505 4.07506 20.3706 4.29009 20.5856 4.61014C20.6606 4.72516 20.6306 4.87518 20.5156 4.95019C20.4006 5.0252 20.2505 4.9952 20.1755 4.88018C20.0355 4.67015 19.8255 4.53013 19.5804 4.48012C19.3354 4.43011 19.0854 4.48012 18.8803 4.62014C18.4553 4.90518 18.3353 5.46027 18.6103 5.89533L21.9358 11.1911C22.0058 11.3061 21.9758 11.4562 21.8558 11.5312C21.8158 11.5562 21.7708 11.5662 21.7258 11.5662Z" fill="#EE7532" stroke="#EE7532"/>
</g>
<g id="Group_11">
<path id="Vector_10" d="M31.0869 19.7474C30.9969 19.7474 30.9119 19.7024 30.8719 19.6174C30.7569 19.4024 30.6418 19.2024 30.5418 19.0323C30.2518 18.5423 30.1868 17.9422 30.3668 17.3871C30.4668 17.097 30.5468 16.777 30.6068 16.532C31.0769 14.5217 30.9169 13.1715 30.4268 11.2312C30.1968 10.311 30.0068 8.69579 29.8517 6.28543C29.8367 6.06039 29.7367 5.84036 29.5717 5.67033C29.4017 5.50031 29.1916 5.39529 28.9666 5.38029C28.7066 5.36029 28.4465 5.4503 28.2515 5.63033C28.0515 5.81036 27.9414 6.06039 27.9364 6.33043L27.8564 10.6911C27.8564 10.7761 27.8114 10.8511 27.7414 10.8961C25.8411 12.0813 26.1562 14.4066 26.1562 14.4316C26.1762 14.5667 26.0812 14.6917 25.9461 14.7117C25.8111 14.7317 25.6861 14.6367 25.6661 14.5016C25.6511 14.3966 25.3211 11.9213 27.3614 10.5511L27.4364 6.32043C27.4414 5.92037 27.6164 5.53531 27.9114 5.26527C28.2115 4.99023 28.5965 4.86021 28.9966 4.89022C29.3367 4.92022 29.6567 5.07525 29.9117 5.32528C30.1618 5.58032 30.3118 5.91037 30.3368 6.25542C30.4918 8.63578 30.6718 10.226 30.8969 11.1161C31.397 13.0864 31.572 14.5517 31.0769 16.652C31.0169 16.912 30.9319 17.2421 30.8269 17.5471C30.6919 17.9622 30.7419 18.4172 30.9619 18.7873C31.0669 18.9673 31.1869 19.1723 31.3019 19.3924C31.367 19.5124 31.3219 19.6624 31.2019 19.7274C31.1619 19.7374 31.1269 19.7474 31.0869 19.7474Z" fill="#EE7532" stroke="#EE7532"/>
</g>
<g id="Group_12">
<path id="Vector_11" d="M24.7911 22.0677C24.6861 22.0677 24.5911 22.0027 24.5561 21.8976L24.246 20.9475C24.216 20.8625 24.156 20.7875 24.071 20.7425C19.7003 18.4071 19.9204 15.1066 20.0104 13.7014L20.0154 13.6164L17.42 8.78568C17.295 8.54565 17.23 8.29061 17.23 8.04057C17.23 7.5755 17.46 7.17544 17.8601 6.94041C18.1351 6.77538 18.4402 6.72538 18.7252 6.80039C19.0853 6.8904 19.4153 7.17044 19.6603 7.5805C19.7304 7.69552 19.6903 7.85054 19.5753 7.91555C19.4603 7.98556 19.3053 7.94556 19.2403 7.83054C19.0653 7.5305 18.8402 7.33547 18.6102 7.27546C18.4502 7.23545 18.2851 7.26546 18.1151 7.36547C17.7951 7.5555 17.7251 7.83554 17.7251 8.04057C17.7251 8.2106 17.7701 8.39062 17.8601 8.55565L20.4855 13.4464C20.5055 13.4864 20.5155 13.5314 20.5155 13.5764L20.5055 13.7314C20.4205 15.0466 20.2104 18.1221 24.306 20.3074C24.5061 20.4124 24.6511 20.5874 24.7211 20.7925L25.0311 21.7426C25.0711 21.8726 25.0011 22.0127 24.8711 22.0527C24.8461 22.0627 24.8211 22.0677 24.7911 22.0677Z" fill="#EE7532" stroke="#EE7532"/>
</g>
<g id="Group_13">
<path id="Vector_12" d="M25.4464 25.0732C25.3463 25.0732 25.2563 25.0132 25.2163 24.9181L24.0812 22.0877C24.0562 22.0277 24.0562 21.9577 24.0862 21.8977C24.1112 21.8377 24.1612 21.7877 24.2262 21.7677L31.5023 19.0823C31.6273 19.0373 31.7673 19.0973 31.8173 19.2223L32.9825 22.0677C33.0325 22.1927 32.9725 22.3378 32.8475 22.3878C32.7224 22.4378 32.5774 22.3778 32.5274 22.2527L31.4523 19.6224L24.6312 22.1377L25.6714 24.7331C25.7214 24.8581 25.6614 25.0031 25.5364 25.0532C25.5064 25.0682 25.4764 25.0732 25.4464 25.0732Z" fill="#EE7532" stroke="#EE7532"/>
</g>
</g>
</svg>
