<svg xmlns="http://www.w3.org/2000/svg" xmlns:xlink="http://www.w3.org/1999/xlink" version="1.1" width="1000" height="1000" viewBox="0 0 1000 1000" xml:space="preserve">
<desc>Created with Fabric.js 3.5.0</desc>
<defs>
</defs>
<rect x="0" y="0" width="100%" height="100%" fill="#ffffff"/>
<g transform="matrix(-53.7343 0 0 -53.7343 500.0002 500.0005)" id="892437">
<path style="stroke: none; stroke-width: 1; stroke-dasharray: none; stroke-linecap: butt; stroke-dashoffset: 0; stroke-linejoin: miter; stroke-miterlimit: 4; is-custom-font: none; font-file-url: none; fill: rgb(238,117,50); fill-rule: nonzero; opacity: 1;" vector-effect="non-scaling-stroke" transform=" translate(-13.8861, -14.9992)" d="M 16.7113 23.4582 C 16.5308 23.4588 16.3525 23.419 16.1894 23.3416 C 16.0263 23.2643 15.8826 23.1513 15.7688 23.0111 L 9.9326 15.7611 C 9.75487 15.5449 9.65771 15.2737 9.65771 14.9938 C 9.65771 14.714 9.75487 14.4428 9.9326 14.2266 L 15.9743 6.97655 C 16.1794 6.72979 16.4741 6.57461 16.7936 6.54515 C 17.1131 6.51569 17.4313 6.61437 17.678 6.81947 C 17.9248 7.02457 18.08 7.3193 18.1094 7.63881 C 18.1389 7.95833 18.0402 8.27646 17.8351 8.52322 L 12.4338 14.9999 L 17.6538 21.4766 C 17.8016 21.6539 17.8955 21.8699 17.9243 22.0989 C 17.9532 22.328 17.9158 22.5605 17.8167 22.769 C 17.7175 22.9774 17.5607 23.1531 17.3648 23.2753 C 17.169 23.3974 16.9422 23.4609 16.7113 23.4582 Z" stroke-linecap="round"/>
</g>
</svg>