<svg width="28" height="28" viewBox="0 0 28 28" fill="none" xmlns="http://www.w3.org/2000/svg">
<path d="M15.1668 3.49992C15.1668 2.85559 14.6445 2.33325 14.0002 2.33325C13.3558 2.33325 12.8335 2.85559 12.8335 3.49992V4.66659C12.8335 5.31092 13.3558 5.83325 14.0002 5.83325C14.6445 5.83325 15.1668 5.31092 15.1668 4.66659V3.49992Z" fill="#9A979A"/>
<path d="M15.1668 18.6666C15.1668 18.0223 14.6445 17.4999 14.0002 17.4999C13.3558 17.4999 12.8335 18.0223 12.8335 18.6666V21.6833L12.4918 21.3416C12.0362 20.886 11.2975 20.886 10.8419 21.3416C10.3863 21.7972 10.3863 22.5359 10.8419 22.9915L13.1752 25.3249C13.6308 25.7805 14.3695 25.7805 14.8251 25.3249L17.1585 22.9915C17.6141 22.5359 17.6141 21.7972 17.1585 21.3416C16.7028 20.886 15.9642 20.886 15.5085 21.3416L15.1668 21.6833V18.6666Z" fill="#9A979A"/>
<path d="M24.5002 15.1666C25.1445 15.1666 25.6668 14.6443 25.6668 13.9999C25.6668 13.3556 25.1445 12.8333 24.5002 12.8333L23.3335 12.8333C22.6892 12.8333 22.1668 13.3556 22.1668 13.9999C22.1668 14.6442 22.6892 15.1666 23.3335 15.1666L24.5002 15.1666Z" fill="#9A979A"/>
<path d="M5.8335 13.9999C5.8335 14.6442 5.31116 15.1666 4.66683 15.1666H3.50016C2.85583 15.1666 2.3335 14.6442 2.3335 13.9999C2.3335 13.3556 2.85583 12.8333 3.50016 12.8333H4.66683C5.31116 12.8333 5.8335 13.3556 5.8335 13.9999Z" fill="#9A979A"/>
<path d="M22.2497 20.5996L21.4248 19.7746C20.9692 19.319 20.2305 19.319 19.7749 19.7746C19.3193 20.2302 19.3193 20.9689 19.7749 21.4245L20.5998 22.2495C21.0554 22.7051 21.7941 22.7051 22.2497 22.2495C22.7054 21.7939 22.7054 21.0552 22.2497 20.5996Z" fill="#9A979A"/>
<path d="M8.22546 8.22521C7.76984 8.68082 7.03115 8.68082 6.57554 8.22521L5.75058 7.40025C5.29497 6.94464 5.29497 6.20595 5.75058 5.75034C6.20619 5.29473 6.94489 5.29473 7.4005 5.75034L8.22546 6.5753C8.68107 7.03091 8.68107 7.7696 8.22546 8.22521Z" fill="#9A979A"/>
<path d="M5.75058 20.5996C5.29497 21.0552 5.29497 21.7939 5.75058 22.2495C6.2062 22.7051 6.94489 22.7051 7.4005 22.2495L8.22546 21.4245C8.68107 20.9689 8.68107 20.2302 8.22546 19.7746C7.76985 19.319 7.03115 19.319 6.57554 19.7746L5.75058 20.5996Z" fill="#9A979A"/>
<path d="M19.7749 8.22521C19.3193 7.7696 19.3193 7.03091 19.7749 6.5753L20.5998 5.75034C21.0554 5.29473 21.7941 5.29473 22.2497 5.75034C22.7054 6.20595 22.7054 6.94464 22.2497 7.40026L21.4248 8.22521C20.9692 8.68083 20.2305 8.68083 19.7749 8.22521Z" fill="#9A979A"/>
<path d="M10.3701 15.8729C9.57602 14.335 9.82565 12.3997 11.1128 11.1126C12.7074 9.51792 15.2929 9.51792 16.8875 11.1126C18.1747 12.3997 18.4243 14.335 17.6302 15.8729C17.3346 16.4454 17.559 17.1491 18.1316 17.4448C18.7041 17.7404 19.4078 17.5159 19.7035 16.9434C20.9499 14.5294 20.5633 11.4885 18.5374 9.46265C16.0316 6.95679 11.9688 6.95679 9.46289 9.46265C7.437 11.4885 7.05039 14.5294 8.29685 16.9434C8.59247 17.5159 9.29624 17.7404 9.86875 17.4448C10.4413 17.1491 10.6657 16.4454 10.3701 15.8729Z" fill="#9A979A"/>
</svg>
