<svg width="29" height="30" viewBox="0 0 29 30" fill="none" xmlns="http://www.w3.org/2000/svg">
<g id="eva:arrow-ios-back-outline">
<g id="evaArrowIosBackOutline0">
<g id="evaArrowIosBackOutline1">
<path id="evaArrowIosBackOutline2" d="M16.7113 23.4582C16.5308 23.4588 16.3525 23.419 16.1894 23.3416C16.0263 23.2643 15.8826 23.1513 15.7688 23.0111L9.9326 15.7611C9.75487 15.5449 9.65771 15.2737 9.65771 14.9938C9.65771 14.714 9.75487 14.4428 9.9326 14.2266L15.9743 6.97655C16.1794 6.72979 16.4741 6.57461 16.7936 6.54515C17.1131 6.51569 17.4313 6.61437 17.678 6.81947C17.9248 7.02457 18.08 7.3193 18.1094 7.63881C18.1389 7.95833 18.0402 8.27646 17.8351 8.52322L12.4338 14.9999L17.6538 21.4766C17.8016 21.6539 17.8955 21.8699 17.9243 22.0989C17.9532 22.328 17.9158 22.5605 17.8167 22.769C17.7175 22.9774 17.5607 23.1531 17.3648 23.2753C17.169 23.3974 16.9422 23.4609 16.7113 23.4582Z" fill="#EE7532"/>
</g>
</g>
</g>
</svg>
