<svg width="61" height="102" viewBox="0 0 61 102" fill="none" xmlns="http://www.w3.org/2000/svg">
<path fill-rule="evenodd" clip-rule="evenodd" d="M54.2309 18C55.4549 19.2438 56.0679 19.9804 56.0679 21.5296C56.0679 23.0787 55.3327 24.1761 54.8808 24.6709C54.429 25.1658 54.8899 25.6187 54.8899 25.6187C56.2238 27.2109 56.8261 28.7573 56.8261 29.5319V40.1113H57.6024V39.6871H58.2929V42.3545L57.1285 43.6454V54.1481H58.5908V53.76H59.4484V56.3147L57.5166 59.6546V72.5224C57.5166 74.0285 57.5163 75.45 58.2478 76.5258C58.9793 77.6016 59.0692 79.2519 59.0692 79.2519V85.8731C59.2167 85.9375 59.368 85.9822 59.4664 85.9454C59.7098 85.8541 59.5538 85.4275 59.9494 85.4579C60.3449 85.4883 61.001 86.2071 61.001 86.2071V101.052H11.001V89.6056H11.4749C11.4749 89.6056 11.4749 88.0573 11.4749 86.8524C11.4749 85.6476 12.8515 85.5165 12.8515 85.5165H17.216C17.0911 85.3966 14.711 83.0616 14.711 79.1932C14.711 75.2214 16.4158 73.3677 18.3759 71.4076C19.3682 70.4153 21.1007 68.8812 23.4309 67.3591C25.6469 65.9115 28.9 64.6216 29.9347 63.4956V60.264C28.6854 60.0544 28.1835 59.2795 28.1835 58.3458C28.1835 56.931 29.9799 56.4727 29.9799 56.4727C29.9799 56.4727 28.9148 56.9913 28.9148 58.102C28.9148 58.5585 29.2634 59.1988 30.6479 59.1988C32.0324 59.1988 32.3855 58.5585 32.3855 58.102C32.3855 57.0825 31.3023 56.4908 31.3023 56.4908C31.3023 56.4908 33.1122 56.928 33.1122 58.3458C33.1122 59.2997 32.5821 60.0887 31.2796 60.2776V63.5183C32.3359 64.639 35.5637 65.921 37.7654 67.3592C40.0956 68.8814 41.8327 70.4155 42.8249 71.4077C44.7849 73.3678 46.4853 75.2215 46.4853 79.1934C46.4853 82.7928 44.4282 85.0609 44.039 85.458H49.3873V79.252C49.3873 79.252 49.4772 77.6017 50.2088 76.5259C50.9403 75.4501 50.9399 74.0286 50.9399 72.5224V59.6547L49.0127 56.3147V53.7601H49.8657V54.1482H51.3281V43.6455L50.1681 42.3546V39.6872H50.8542V40.1114H51.6305C51.6305 40.1114 51.6305 30.3065 51.6305 29.532C51.6305 28.7574 52.2327 27.211 53.5667 25.6188C53.5667 25.6188 54.0275 25.1658 53.5757 24.671C53.1239 24.1761 52.3932 23.0788 52.3932 21.5296C52.3932 19.9805 53.0068 19.3292 54.2309 18ZM56.4198 35.1467H56.0272V40.0753H56.4198V35.1467ZM54.8717 35.1467H53.7614V40.0753H54.8717V35.1467ZM52.6014 35.1467H52.2087V40.0753H52.6014V35.1467Z" fill="url(#paint0_linear_191_1679)"/>
<defs>
<linearGradient id="paint0_linear_191_1679" x1="54.7636" y1="17.8556" x2="6.50097" y2="9" gradientUnits="userSpaceOnUse">
<stop offset="0.114583" stop-color="#DBDEC4"/>
<stop offset="0.484375" stop-color="#DBDEC4" stop-opacity="0.4"/>
</linearGradient>
</defs>
</svg>
