<svg width="20" height="21" viewBox="0 0 20 21" fill="none" xmlns="http://www.w3.org/2000/svg">
<path d="M13.2011 6.23325L17.4678 1.96655M13.2011 1.96655L17.4678 6.23325M5.73438 16.9C6.22287 18.74 7.94767 20.1 10.0011 20.1C12.0544 20.1 13.7782 18.74 14.2678 16.9" stroke="#EE7532" stroke-width="1.2" stroke-linecap="round" stroke-linejoin="round"/>
<path d="M17.4679 9.4332V12.1297C17.468 12.4607 17.545 12.7872 17.693 13.0833L18.829 15.3553C18.9105 15.5179 18.9491 15.6987 18.941 15.8804C18.933 16.0622 18.8786 16.2388 18.783 16.3936C18.6874 16.5484 18.5539 16.6762 18.395 16.7648C18.2361 16.8534 18.0572 16.8999 17.8753 16.8999H2.12713C1.94538 16.8998 1.76667 16.8533 1.60795 16.7647C1.44924 16.6761 1.31579 16.5485 1.22026 16.3939C1.12473 16.2392 1.07029 16.0628 1.06212 15.8812C1.05394 15.6996 1.09229 15.519 1.17353 15.3564L2.30953 13.0844C2.45781 12.7877 2.53485 12.4604 2.53453 12.1287V8.3666C2.53453 6.38631 3.3212 4.48713 4.72147 3.08685C6.12175 1.68657 8.02094 0.899902 10.0012 0.899902" stroke="#EE7532" stroke-width="1.2" stroke-linecap="round" stroke-linejoin="round"/>
</svg>
