<svg width="28" height="28" viewBox="0 0 28 28" fill="none" xmlns="http://www.w3.org/2000/svg">
<g clip-path="url(#clip0_191_1729)">
<path d="M5.6001 9.8001C5.6001 9.8001 5.6001 7.46674 6.53346 6.53346C7.46682 5.60019 8.4001 5.6001 8.4001 5.6001M22.4001 9.8001C22.4001 9.8001 22.4001 7.46674 21.4667 6.53346C20.5334 5.60019 19.6001 5.6001 19.6001 5.6001M10.2667 19.6001C10.6942 21.2101 12.2034 22.4001 14.0001 22.4001C15.7967 22.4001 17.3051 21.2101 17.7335 19.6001" fill="#FAF3EE"/>
<path d="M5.6001 9.8001C5.6001 9.8001 5.6001 7.46674 6.53346 6.53346C7.46682 5.60019 8.4001 5.6001 8.4001 5.6001M22.4001 9.8001C22.4001 9.8001 22.4001 7.46674 21.4667 6.53346C20.5334 5.60019 19.6001 5.6001 19.6001 5.6001M10.2667 19.6001C10.6942 21.2101 12.2034 22.4001 14.0001 22.4001C15.7967 22.4001 17.3051 21.2101 17.7335 19.6001" stroke="#EE7532" stroke-width="1.2" stroke-linecap="round" stroke-linejoin="round"/>
<path d="M7.46655 12.1335C7.46655 10.4007 8.15489 8.73892 9.38013 7.51368C10.6054 6.28843 12.2672 5.6001 13.9999 5.6001C15.7327 5.6001 17.3945 6.28843 18.6197 7.51368C19.8449 8.73892 20.5333 10.4007 20.5333 12.1335V15.4263C20.5333 15.7159 20.6007 16.0016 20.7302 16.2607L21.7242 18.2487C21.7955 18.391 21.8293 18.5491 21.8222 18.7081C21.8151 18.8671 21.7675 19.0217 21.6839 19.1571C21.6003 19.2925 21.4834 19.4043 21.3444 19.4819C21.2054 19.5594 21.0489 19.6001 20.8898 19.6001H7.11008C6.95105 19.6 6.79467 19.5593 6.6558 19.4818C6.51692 19.4043 6.40015 19.2926 6.31657 19.1573C6.23298 19.022 6.18535 18.8676 6.17819 18.7087C6.17104 18.5499 6.20459 18.3918 6.27568 18.2495L7.26968 16.2615C7.39943 16.0019 7.46684 15.7156 7.46655 15.4253V12.1335Z" fill="#EE7532" stroke="#EE7532" stroke-width="1.2" stroke-linecap="round" stroke-linejoin="round"/>
</g>
<defs>
<clipPath id="clip0_191_1729">
<rect width="28" height="28" fill="white"/>
</clipPath>
</defs>
</svg>
