<svg width="28" height="28" viewBox="0 0 28 28" fill="none" xmlns="http://www.w3.org/2000/svg">
<path d="M14.0002 2.33325C14.6445 2.33325 15.1668 2.85559 15.1668 3.49992V4.66659C15.1668 5.31092 14.6445 5.83325 14.0002 5.83325C13.3558 5.83325 12.8335 5.31092 12.8335 4.66659V3.49992C12.8335 2.85559 13.3558 2.33325 14.0002 2.33325Z" fill="#9A979A"/>
<path d="M14.0002 22.1666C14.6445 22.1666 15.1668 22.6889 15.1668 23.3333V24.4999C15.1668 25.1442 14.6445 25.6666 14.0002 25.6666C13.3558 25.6666 12.8335 25.1442 12.8335 24.4999V23.3333C12.8335 22.6889 13.3558 22.1666 14.0002 22.1666Z" fill="#9A979A"/>
<path d="M24.5002 15.1666C25.1445 15.1666 25.6668 14.6443 25.6668 13.9999C25.6668 13.3556 25.1445 12.8333 24.5002 12.8333H23.3335C22.6892 12.8333 22.1668 13.3556 22.1668 13.9999C22.1668 14.6442 22.6892 15.1666 23.3335 15.1666H24.5002Z" fill="#9A979A"/>
<path d="M5.8335 13.9999C5.8335 14.6442 5.31116 15.1666 4.66683 15.1666H3.50016C2.85583 15.1666 2.3335 14.6442 2.3335 13.9999C2.3335 13.3556 2.85583 12.8333 3.50016 12.8333H4.66683C5.31116 12.8333 5.8335 13.3556 5.8335 13.9999Z" fill="#9A979A"/>
<path d="M19.7749 21.4245L20.5998 22.2495C21.0554 22.7051 21.7941 22.7051 22.2497 22.2495C22.7054 21.7939 22.7054 21.0552 22.2497 20.5996L21.4248 19.7746C20.9692 19.319 20.2305 19.319 19.7749 19.7746C19.3193 20.2302 19.3193 20.9689 19.7749 21.4245Z" fill="#9A979A"/>
<path d="M8.22546 8.22521C7.76985 8.68082 7.03115 8.68082 6.57554 8.22521L5.75058 7.40025C5.29497 6.94464 5.29497 6.20595 5.75058 5.75034C6.2062 5.29473 6.94489 5.29473 7.4005 5.75034L8.22546 6.5753C8.68107 7.03091 8.68107 7.7696 8.22546 8.22521Z" fill="#9A979A"/>
<path d="M5.75058 20.5996C5.29497 21.0552 5.29497 21.7939 5.75058 22.2495C6.2062 22.7051 6.94489 22.7051 7.4005 22.2495L8.22546 21.4245C8.68107 20.9689 8.68107 20.2302 8.22546 19.7746C7.76985 19.319 7.03115 19.319 6.57554 19.7746L5.75058 20.5996Z" fill="#9A979A"/>
<path d="M19.7749 8.22521C19.3193 7.7696 19.3193 7.03091 19.7749 6.5753L20.5998 5.75034C21.0554 5.29473 21.7941 5.29473 22.2497 5.75034C22.7054 6.20595 22.7054 6.94464 22.2497 7.40026L21.4248 8.22521C20.9692 8.68083 20.2305 8.68083 19.7749 8.22521Z" fill="#9A979A"/>
<path fill-rule="evenodd" clip-rule="evenodd" d="M14.0002 7.58325C10.4563 7.58325 7.5835 10.4561 7.5835 13.9999C7.5835 17.5437 10.4563 20.4166 14.0002 20.4166C17.544 20.4166 20.4168 17.5437 20.4168 13.9999C20.4168 10.4561 17.544 7.58325 14.0002 7.58325ZM9.91683 13.9999C9.91683 11.7448 11.745 9.91658 14.0002 9.91658C16.2553 9.91658 18.0835 11.7448 18.0835 13.9999C18.0835 16.2551 16.2553 18.0833 14.0002 18.0833C11.745 18.0833 9.91683 16.2551 9.91683 13.9999Z" fill="#9A979A"/>
</svg>
