<svg width="62" height="60" viewBox="0 0 62 60" fill="none" xmlns="http://www.w3.org/2000/svg">
<g id="Daily">
<g id="Group">
<g id="Group_2">
<path id="Vector" d="M60.0805 16.3391H1.91858V18.4239H60.0805V16.3391Z" fill="#EE7532" stroke="#EE7532"/>
</g>
<g id="Group_3">
<path id="Vector_2" d="M57.3247 57.4999H4.67433C2.64794 57.4999 1 55.6298 1 53.3303V9.5581C1 7.25852 2.64794 5.38843 4.67433 5.38843H9.49873V9.26831C9.49873 10.4181 10.3227 11.3531 11.3359 11.3531H13.061C14.0742 11.3531 14.8982 10.4181 14.8982 9.26831V5.38843H22.3589V9.26831C22.3589 10.4181 23.1829 11.3531 24.1961 11.3531H25.9212C26.9343 11.3531 27.7583 10.4181 27.7583 9.26831V5.38843H35.2191V9.26831C35.2191 10.4181 36.043 11.3531 37.0562 11.3531H38.7813C39.7945 11.3531 40.6185 10.4181 40.6185 9.26831V5.38843H47.1606V9.26831C47.1606 10.4181 47.9846 11.3531 48.9978 11.3531H50.7229C51.7361 11.3531 52.5601 10.4181 52.5601 9.26831V5.38843H57.3257C59.3521 5.38843 61 7.25852 61 9.5581V53.3313C60.9991 55.6298 59.3511 57.4999 57.3247 57.4999ZM4.67433 7.47326C3.66113 7.47326 2.83717 8.40831 2.83717 9.5581V53.3313C2.83717 54.4811 3.66113 55.4161 4.67433 55.4161H57.3247C58.3379 55.4161 59.1619 54.4811 59.1619 53.3313V9.5581C59.1619 8.40831 58.3379 7.47326 57.3247 7.47326H54.3963V9.26831C54.3963 11.5679 52.7484 13.438 50.722 13.438H48.9969C46.9705 13.438 45.3225 11.5679 45.3225 9.26831V7.47326H42.4547V9.26831C42.4547 11.5679 40.8068 13.438 38.7804 13.438H37.0553C35.0289 13.438 33.381 11.5679 33.381 9.26831V7.47326H29.5946V9.26831C29.5946 11.5679 27.9466 13.438 25.9202 13.438H24.1951C22.1687 13.438 20.5208 11.5679 20.5208 9.26831V7.47326H16.7344V9.26831C16.7344 11.5679 15.0865 13.438 13.0601 13.438H11.335C9.30858 13.438 7.66064 11.5679 7.66064 9.26831V7.47326H4.67433Z" fill="#EE7532" stroke="#EE7532"/>
</g>
<g id="Group_4">
<path id="Vector_3" d="M12.1544 10.0909C11.6473 10.0909 11.2358 9.62388 11.2358 9.04847V3.54242C11.2358 2.967 11.6473 2.5 12.1544 2.5C12.6614 2.5 13.0729 2.967 13.0729 3.54242V9.04847C13.0729 9.62493 12.6623 10.0909 12.1544 10.0909Z" fill="#EE7532" stroke="#EE7532"/>
</g>
<g id="Group_5">
<path id="Vector_4" d="M25.0145 10.0909C24.5075 10.0909 24.0959 9.62388 24.0959 9.04847V3.54242C24.0959 2.967 24.5075 2.5 25.0145 2.5C25.5216 2.5 25.9331 2.967 25.9331 3.54242V9.04847C25.9331 9.62493 25.5225 10.0909 25.0145 10.0909Z" fill="#EE7532" stroke="#EE7532"/>
</g>
<g id="Group_6">
<path id="Vector_5" d="M37.8746 10.0909C37.3676 10.0909 36.9561 9.62388 36.9561 9.04847V3.54242C36.9561 2.967 37.3676 2.5 37.8746 2.5C38.3817 2.5 38.7932 2.967 38.7932 3.54242V9.04847C38.7932 9.62493 38.3826 10.0909 37.8746 10.0909Z" fill="#EE7532" stroke="#EE7532"/>
</g>
<g id="Group_7">
<path id="Vector_6" d="M49.8162 10.0909C49.3092 10.0909 48.8976 9.62388 48.8976 9.04847V3.54242C48.8976 2.967 49.3092 2.5 49.8162 2.5C50.3233 2.5 50.7348 2.967 50.7348 3.54242V9.04847C50.7348 9.62493 50.3242 10.0909 49.8162 10.0909Z" fill="#EE7532" stroke="#EE7532"/>
</g>
<g id="Group_8">
<path id="Vector_7" d="M26.8379 32.7948C27.3422 32.7625 27.9475 32.3205 28.1818 31.8128L30.8778 25.9857C31.113 25.4781 31.474 25.4906 31.6806 26.0139L33.9624 31.7847C34.17 32.308 34.7496 32.7885 35.2512 32.8521L39.9222 33.4473C40.4237 33.512 40.5624 33.9164 40.229 34.348L37.1977 38.2748C36.8642 38.7063 36.618 39.5267 36.6493 40.099L36.9285 45.1506C36.9597 45.7229 36.6254 45.9616 36.1845 45.6822L32.105 43.0928C31.6641 42.8124 30.9375 42.802 30.4902 43.0689L26.069 45.7062C25.6217 45.973 25.3222 45.7281 25.404 45.1631L26.1691 39.8322C26.2509 39.2672 26.0323 38.4635 25.6832 38.0496L22.1825 33.8893C21.8334 33.4755 21.9611 33.1086 22.4654 33.0762L26.8379 32.7948Z" fill="#EE7532" stroke="#EE7532"/>
</g>
</g>
</g>
</svg>
