<svg width="60" height="60" viewBox="0 0 60 60" fill="none" xmlns="http://www.w3.org/2000/svg">
<path d="M32.5 7.5C32.5 6.11929 31.3807 5 30 5C28.6193 5 27.5 6.11929 27.5 7.5V10C27.5 11.3807 28.6193 12.5 30 12.5C31.3807 12.5 32.5 11.3807 32.5 10V7.5Z" fill="#EE7532"/>
<path d="M32.5 40C32.5 38.6193 31.3807 37.5 30 37.5C28.6193 37.5 27.5 38.6193 27.5 40V46.4645L26.7678 45.7322C25.7915 44.7559 24.2085 44.7559 23.2322 45.7322C22.2559 46.7085 22.2559 48.2915 23.2322 49.2678L28.2322 54.2678C29.2085 55.2441 30.7915 55.2441 31.7678 54.2678L36.7678 49.2678C37.7441 48.2915 37.7441 46.7085 36.7678 45.7322C35.7915 44.7559 34.2085 44.7559 33.2322 45.7322L32.5 46.4645V40Z" fill="#EE7532"/>
<path d="M52.5 32.5C53.8807 32.5 55 31.3807 55 30C55 28.6193 53.8807 27.5 52.5 27.5H50C48.6193 27.5 47.5 28.6193 47.5 30C47.5 31.3807 48.6193 32.5 50 32.5H52.5Z" fill="#EE7532"/>
<path d="M12.5 30C12.5 31.3807 11.3807 32.5 10 32.5H7.5C6.11929 32.5 5 31.3807 5 30C5 28.6193 6.11929 27.5 7.5 27.5H10C11.3807 27.5 12.5 28.6193 12.5 30Z" fill="#EE7532"/>
<path d="M47.6777 44.1421L45.9099 42.3744C44.9336 41.3981 43.3507 41.3981 42.3744 42.3744C41.3981 43.3507 41.3981 44.9336 42.3744 45.9099L44.1421 47.6777C45.1184 48.654 46.7014 48.654 47.6777 47.6777C48.654 46.7014 48.654 45.1184 47.6777 44.1421Z" fill="#EE7532"/>
<path d="M17.6256 17.6256C16.6493 18.6019 15.0664 18.6019 14.0901 17.6256L12.3223 15.8579C11.346 14.8816 11.346 13.2986 12.3223 12.3223C13.2986 11.346 14.8816 11.346 15.8579 12.3223L17.6256 14.0901C18.6019 15.0664 18.6019 16.6493 17.6256 17.6256Z" fill="#EE7532"/>
<path d="M12.3223 44.1421C11.346 45.1184 11.346 46.7014 12.3223 47.6777C13.2986 48.654 14.8816 48.654 15.8579 47.6777L17.6256 45.9099C18.6019 44.9336 18.6019 43.3507 17.6256 42.3744C16.6493 41.3981 15.0664 41.3981 14.0901 42.3744L12.3223 44.1421Z" fill="#EE7532"/>
<path d="M42.3744 17.6256C41.3981 16.6493 41.3981 15.0664 42.3744 14.0901L44.1421 12.3223C45.1184 11.346 46.7014 11.346 47.6777 12.3223C48.654 13.2986 48.654 14.8816 47.6777 15.8579L45.9099 17.6256C44.9336 18.6019 43.3507 18.6019 42.3744 17.6256Z" fill="#EE7532"/>
<path d="M22.2213 34.0134C20.5197 30.718 21.0546 26.571 23.8128 23.8128C27.2299 20.3957 32.7701 20.3957 36.1872 23.8128C38.9453 26.571 39.4803 30.718 37.7787 34.0134C37.1452 35.2403 37.6262 36.7483 38.853 37.3818C40.0798 38.0153 41.5879 37.5343 42.2213 36.3075C44.8923 31.1347 44.0639 24.6185 39.7227 20.2773C34.353 14.9076 25.647 14.9076 20.2773 20.2773C15.9361 24.6185 15.1076 31.1347 17.7786 36.3075C18.4121 37.5343 19.9202 38.0153 21.147 37.3818C22.3738 36.7483 22.8548 35.2403 22.2213 34.0134Z" fill="#EE7532"/>
</svg>
