<svg width="28" height="28" viewBox="0 0 28 28" fill="none" xmlns="http://www.w3.org/2000/svg">
<path d="M14.0002 3.5C14.6445 3.5 15.1668 4.02233 15.1668 4.66667V5.83333C15.1668 6.47767 14.6445 7 14.0002 7C13.3558 7 12.8335 6.47767 12.8335 5.83333V4.66667C12.8335 4.02233 13.3558 3.5 14.0002 3.5Z" fill="#9A979A"/>
<path d="M25.6668 15.1667C25.6668 15.811 25.1445 16.3333 24.5002 16.3333H23.3335C22.6892 16.3333 22.1668 15.811 22.1668 15.1667C22.1668 14.5223 22.6892 14 23.3335 14H24.5002C25.1445 14 25.6668 14.5223 25.6668 15.1667Z" fill="#9A979A"/>
<path d="M4.66683 16.3333C5.31116 16.3333 5.8335 15.811 5.8335 15.1667C5.8335 14.5223 5.31116 14 4.66683 14H3.50016C2.85583 14 2.3335 14.5223 2.3335 15.1667C2.3335 15.811 2.85583 16.3333 3.50016 16.3333H4.66683Z" fill="#9A979A"/>
<path d="M8.22546 9.39196C7.76985 9.84757 7.03115 9.84757 6.57554 9.39196L5.75058 8.567C5.29497 8.11139 5.29497 7.3727 5.75058 6.91709C6.2062 6.46148 6.94489 6.46148 7.4005 6.91709L8.22546 7.74205C8.68107 8.19766 8.68107 8.93635 8.22546 9.39196Z" fill="#9A979A"/>
<path d="M20.5998 6.91709L19.7749 7.74205C19.3193 8.19766 19.3193 8.93635 19.7749 9.39196C20.2305 9.84757 20.9692 9.84757 21.4248 9.39196L22.2497 8.567C22.7054 8.11139 22.7054 7.3727 22.2497 6.91709C21.7941 6.46148 21.0554 6.46148 20.5998 6.91709Z" fill="#9A979A"/>
<path d="M23.3335 22.1667C23.3335 22.811 22.8112 23.3333 22.1668 23.3333H5.8335C5.18916 23.3333 4.66683 22.811 4.66683 22.1667C4.66683 21.5223 5.18916 21 5.8335 21H22.1668C22.8112 21 23.3335 21.5223 23.3335 22.1667Z" fill="#9A979A"/>
<path d="M10.3701 17.0396C9.57603 15.5017 9.82566 13.5665 11.1128 12.2793C12.7074 10.6847 15.2929 10.6847 16.8875 12.2793C18.1747 13.5665 18.4243 15.5017 17.6302 17.0396C17.3346 17.6121 17.5591 18.3159 18.1316 18.6115C18.7041 18.9071 19.4078 18.6827 19.7035 18.1101C20.9499 15.6962 20.5633 12.6553 18.5374 10.6294C16.0316 8.12353 11.9688 8.12353 9.46289 10.6294C7.43701 12.6553 7.0504 15.6962 8.29686 18.1101C8.59248 18.6827 9.29624 18.9071 9.86876 18.6115C10.4413 18.3159 10.6657 17.6121 10.3701 17.0396Z" fill="#9A979A"/>
</svg>
