<svg width="32" height="32" viewBox="0 0 32 32" fill="none" xmlns="http://www.w3.org/2000/svg">
<path d="M27.3891 28.3152H24.2178C24.5155 29.5435 24.8132 30.7717 25.1108 32H28.7193L27.3891 28.3152Z" fill="#EE7532"/>
<path d="M3.28076 32H6.88912C7.1869 30.7717 7.4846 29.5435 7.78223 28.3152H4.61095L3.28076 32Z" fill="#EE7532"/>
<path d="M6.62706 22.73L5.29688 26.4148H8.24281C8.54047 25.1865 8.83816 23.9582 9.13587 22.73L6.62706 22.73Z" fill="#EE7532"/>
<path d="M10.0886 26.4148H14.2716L11.9971 22.73H10.7692C10.5424 23.9583 10.3155 25.1865 10.0886 26.4148Z" fill="#EE7532"/>
<path d="M9.73752 28.3152C9.51068 29.5435 9.2838 30.7717 9.05688 32H22.9432C22.7163 30.7717 22.4895 29.5435 22.2626 28.3152H9.73752Z" fill="#EE7532"/>
<path d="M25.3729 22.73H20.003L17.7288 26.4148H26.7031L25.3729 22.73Z" fill="#EE7532"/>
<path d="M14.8779 25.547C15.252 26.153 15.626 26.759 16 27.3649C16.3741 26.7589 16.7481 26.1529 17.1221 25.547C18.6428 23.0832 20.1634 20.6195 21.684 18.1558C23.3442 15.466 25.4377 12.7251 25.4377 9.44564C25.4387 8.20559 25.1954 6.9775 24.7215 5.83155C24.2477 4.6856 23.5527 3.64426 22.6762 2.76704C21.7998 1.88983 20.759 1.19395 19.6134 0.719162C18.4679 0.244376 17.24 0 16 0C14.7599 0 13.532 0.244376 12.3865 0.719162C11.2409 1.19395 10.2002 1.88983 9.32369 2.76704C8.44722 3.64426 7.75221 4.6856 7.27838 5.83155C6.80456 6.9775 6.56122 8.20559 6.56226 9.44564C6.56226 12.7251 8.65583 15.466 10.316 18.1558C11.8367 20.6195 13.3573 23.0832 14.8779 25.547ZM16 4.57596C16.9631 4.57595 17.9046 4.86155 18.7055 5.39663C19.5063 5.93171 20.1305 6.69224 20.499 7.58206C20.8676 8.47187 20.9641 9.451 20.7762 10.3956C20.5883 11.3403 20.1245 12.208 19.4435 12.889C18.7624 13.57 17.8947 14.0338 16.9501 14.2217C16.0055 14.4096 15.0263 14.3132 14.1365 13.9446C13.2467 13.5761 12.4862 12.9519 11.9511 12.1511C11.416 11.3503 11.1304 10.4088 11.1304 9.44564C11.1304 8.80615 11.2563 8.17292 11.5011 7.5821C11.7458 6.99129 12.1045 6.45446 12.5567 6.00227C13.0088 5.55008 13.5457 5.19138 14.1365 4.94665C14.7273 4.70193 15.3605 4.57597 16 4.57596Z" fill="#EE7532"/>
</svg>
