<svg width="28" height="28" viewBox="0 0 28 28" fill="none" xmlns="http://www.w3.org/2000/svg">
<path fill-rule="evenodd" clip-rule="evenodd" d="M13.4752 5.28384C13.7382 5.64915 13.7676 6.13319 13.5507 6.52765C13.0936 7.35897 12.8332 8.31399 12.8332 9.33333C12.8332 12.555 15.4448 15.1667 18.6665 15.1667C19.6858 15.1667 20.6409 14.9062 21.4722 14.4491C21.8666 14.2322 22.3507 14.2616 22.716 14.5246C23.0813 14.7877 23.2627 15.2374 23.1821 15.6803C22.3901 20.033 18.5816 23.3333 13.9998 23.3333C8.84518 23.3333 4.6665 19.1547 4.6665 14C4.6665 9.41822 7.96679 5.60971 12.3196 4.81771C12.7624 4.73713 13.2122 4.91853 13.4752 5.28384ZM10.6323 7.86139C8.46721 9.05185 6.99984 11.3553 6.99984 14C6.99984 17.866 10.1338 21 13.9998 21C16.6445 21 18.948 19.5326 20.1384 17.3675C19.6607 17.4545 19.1687 17.5 18.6665 17.5C14.1562 17.5 10.4998 13.8437 10.4998 9.33333C10.4998 8.83115 10.5453 8.33916 10.6323 7.86139Z" fill="#9A979A"/>
</svg>
