<svg width="24" height="24" viewBox="0 0 24 24" fill="none" xmlns="http://www.w3.org/2000/svg">
<path d="M12.6516 21.4931L12.6515 21.4932C12.47 21.6492 12.2384 21.7349 11.999 21.7347C11.76 21.7344 11.5289 21.6486 11.3477 21.4927C11.3474 21.4925 11.3472 21.4923 11.347 21.4921L11.0258 21.2133C11.0255 21.2131 11.0252 21.2129 11.0249 21.2126C6.36829 17.1372 4.14307 13.5108 4.14307 10.2856C4.14307 8.20177 4.97087 6.20327 6.44437 4.72977C7.91787 3.25627 9.91637 2.42847 12.0002 2.42847C14.0841 2.42847 16.0825 3.25627 17.556 4.72977C19.0295 6.20327 19.8574 8.20177 19.8574 10.2856C19.8574 13.5855 17.5276 17.3057 12.6516 21.4931ZM12.0002 6.57132C11.0151 6.57132 10.0704 6.96265 9.37381 7.65921C8.67725 8.35578 8.28592 9.30052 8.28592 10.2856C8.28592 11.2707 8.67725 12.2154 9.37381 12.912C10.0704 13.6086 11.0151 13.9999 12.0002 13.9999C12.9853 13.9999 13.93 13.6086 14.6266 12.912C15.3232 12.2154 15.7145 11.2707 15.7145 10.2856C15.7145 9.30052 15.3232 8.35578 14.6266 7.65921C13.93 6.96265 12.9853 6.57132 12.0002 6.57132Z" fill="#313140" stroke="#313140"/>
</svg>
