<svg width="32" height="32" viewBox="0 0 32 32" fill="none" xmlns="http://www.w3.org/2000/svg">
<path d="M16.9771 28.7842L16.9771 28.7843C16.7047 29.0182 16.3574 29.1468 15.9983 29.1464C15.6395 29.1461 15.2926 29.0172 15.0207 28.783C15.0205 28.7828 15.0204 28.7827 15.0202 28.7825L14.591 28.4101C14.5908 28.4099 14.5906 28.4097 14.5904 28.4095C8.37302 22.9684 5.35718 18.0905 5.35718 13.7144C5.35718 10.8917 6.47848 8.18468 8.4744 6.18875C10.4703 4.19283 13.1774 3.07153 16 3.07153C18.8227 3.07153 21.5297 4.19283 23.5257 6.18875C25.5216 8.18468 26.6429 10.8917 26.6429 13.7144C26.6429 18.1915 23.486 23.1945 16.9771 28.7842ZM16 8.92868C14.7308 8.92868 13.5135 9.43288 12.616 10.3304C11.7185 11.2279 11.2143 12.4451 11.2143 13.7144C11.2143 14.9836 11.7185 16.2009 12.616 17.0984C13.5135 17.9959 14.7308 18.5001 16 18.5001C17.2693 18.5001 18.4866 17.9959 19.384 17.0984C20.2815 16.2009 20.7857 14.9836 20.7857 13.7144C20.7857 12.4451 20.2815 11.2279 19.384 10.3304C18.4866 9.43288 17.2693 8.92868 16 8.92868Z" fill="#EE7532" stroke="#EE7532"/>
</svg>
