<svg width="32" height="32" viewBox="0 0 32 32" fill="none" xmlns="http://www.w3.org/2000/svg">
<path d="M9.39791 8.72419C9.39791 8.25261 9.02738 7.88208 8.55581 7.88208H5.49054C5.01896 7.88208 4.64844 8.25261 4.64844 8.72419C4.64844 9.19576 5.01896 9.56629 5.49054 9.56629H8.55581C9.02738 9.56629 9.39791 9.16208 9.39791 8.72419Z" fill="#EE7532"/>
<path d="M9.39793 5.89475C9.56635 6.06317 9.76845 6.13054 9.97056 6.13054C10.1727 6.13054 10.4085 6.02949 10.5432 5.89475C10.7116 5.72633 10.779 5.52423 10.779 5.32212C10.779 5.08633 10.6779 4.88423 10.5432 4.74949L8.3874 2.5937C8.21898 2.42528 8.01687 2.35791 7.81477 2.35791C7.61266 2.35791 7.37687 2.45896 7.24214 2.5937C7.07372 2.76212 7.00635 2.96423 7.00635 3.16633C7.00635 3.40212 7.1074 3.60423 7.24214 3.73896L9.39793 5.89475Z" fill="#EE7532"/>
<path d="M13.3726 4.71579C13.8442 4.71579 14.2147 4.34526 14.2147 3.87368V0.842105C14.2147 0.370526 13.8442 0 13.3726 0C12.901 0 12.5305 0.370526 12.5305 0.842105V3.90737C12.5642 4.34526 12.9347 4.71579 13.3726 4.71579Z" fill="#EE7532"/>
<path d="M16.8084 6.13054C17.0442 6.13054 17.2463 6.02949 17.381 5.89475L19.5368 3.73896C19.7053 3.57054 19.7726 3.36844 19.7726 3.16633C19.7726 2.93054 19.6716 2.72844 19.5368 2.5937C19.3684 2.42528 19.1663 2.35791 18.9642 2.35791C18.7621 2.35791 18.5263 2.45896 18.3916 2.5937L16.2358 4.74949C15.8989 5.08633 15.8989 5.59159 16.2358 5.92844C16.3705 6.06317 16.5726 6.13054 16.8084 6.13054Z" fill="#EE7532"/>
<path d="M17.3811 8.72419C17.3811 9.19576 17.7516 9.56629 18.2232 9.56629H21.2885C21.76 9.56629 22.1306 9.19576 22.1306 8.72419C22.1306 8.25261 21.76 7.88208 21.2885 7.88208H18.2232C17.7516 7.88208 17.3811 8.25261 17.3811 8.72419Z" fill="#EE7532"/>
<path d="M26.0715 16.9432C25.9705 16.9095 25.8694 16.9095 25.7684 16.9095C24.8926 16.9095 24.1852 17.6169 24.1852 18.4927V18.5601C24.1852 18.8295 23.9831 19.0316 23.7136 19.0316C23.4441 19.0316 23.242 18.8295 23.242 18.5601V17.4485C23.242 16.5727 22.5347 15.8653 21.6589 15.8653C21.5578 15.8653 21.4568 15.8653 21.3557 15.899C20.6147 16.0337 20.0757 16.7074 20.0757 17.5158V17.8864C20.0757 18.1558 19.8736 18.3579 19.6041 18.3579C19.3347 18.3579 19.1326 18.1558 19.1326 17.8864V16.539C19.1326 15.6632 18.4252 14.9558 17.5494 14.9558C17.5157 14.9558 17.482 14.9558 17.482 14.9558C16.6399 14.9895 15.9663 15.7306 15.9663 16.6064V17.2464C15.9663 17.5158 15.7641 17.7179 15.4947 17.7179C15.2252 17.7179 15.0231 17.5158 15.0231 17.2464V8.75795C15.0231 7.94953 14.4841 7.27584 13.7431 7.14111C13.642 7.10742 13.541 7.10742 13.4063 7.10742C12.5305 7.10742 11.8231 7.81479 11.8231 8.69058V20.9853C11.8231 21.1874 11.6547 21.3222 11.4863 21.3222C11.4189 21.3222 11.3178 21.2885 11.2168 21.1874L8.99362 18.1895C8.72415 17.8527 8.42099 17.6169 8.05046 17.5158C7.88204 17.4822 7.71362 17.4485 7.5452 17.4485C7.20836 17.4485 6.87151 17.5495 6.56836 17.7516C5.86099 18.2569 5.6252 19.2001 6.02941 20.0085L10.442 28.6653C11.4863 30.7201 13.6084 32.0001 15.9326 32.0001H21.221C22.8041 32.0001 24.3199 31.3937 25.4652 30.3158C26.6105 29.2379 27.2841 27.7558 27.3515 26.2064C27.3515 26.139 27.3515 26.0716 27.3515 26.0043V18.5601C27.3515 17.7516 26.8126 17.0779 26.0715 16.9432Z" fill="#EE7532"/>
</svg>
