<svg width="28" height="28" viewBox="0 0 28 28" fill="none" xmlns="http://www.w3.org/2000/svg">
<path d="M13.7302 6.39557C13.9471 6.00111 13.9177 5.51707 13.6547 5.15176C13.3916 4.78645 12.9419 4.60505 12.499 4.68563C8.63256 5.38914 5.70097 8.77195 5.70097 12.8419C5.70097 14.9137 6.46243 16.8105 7.71919 18.2634C8.14072 18.7507 8.87749 18.804 9.3648 18.3825C9.85211 17.9609 9.90543 17.2242 9.4839 16.7369C8.57995 15.6919 8.03431 14.3321 8.03431 12.8419C8.03431 10.7024 9.16284 8.82514 10.8572 7.77465C10.8125 8.10064 10.7894 8.43333 10.7894 8.77117C10.7894 12.7878 14.0455 16.0439 18.0621 16.0439C18.3999 16.0439 18.7326 16.0208 19.0585 15.9761C18.8921 16.2445 18.7048 16.4988 18.4989 16.7369C18.0774 17.2242 18.1307 17.9609 18.618 18.3825C19.1053 18.804 19.8421 18.7507 20.2636 18.2634C21.2107 17.1685 21.8771 15.821 22.1477 14.3343C22.2283 13.8914 22.0469 13.4417 21.6815 13.1786C21.3162 12.9156 20.8322 12.8862 20.4377 13.1031C19.734 13.49 18.9256 13.7106 18.0621 13.7106C15.3342 13.7106 13.1227 11.4991 13.1227 8.77117C13.1227 7.90773 13.3433 7.09929 13.7302 6.39557Z" fill="#9A979A"/>
<path d="M22.1665 23.3335C22.8108 23.3335 23.3332 22.8111 23.3332 22.1668C23.3332 21.5225 22.8108 21.0001 22.1665 21.0001H5.83317C5.18884 21.0001 4.6665 21.5225 4.6665 22.1668C4.6665 22.8111 5.18884 23.3335 5.83317 23.3335L22.1665 23.3335Z" fill="#9A979A"/>
</svg>
