<svg width="60" height="60" viewBox="0 0 60 60" fill="none" xmlns="http://www.w3.org/2000/svg">
<path d="M30 5C31.3807 5 32.5 6.11929 32.5 7.5V10C32.5 11.3807 31.3807 12.5 30 12.5C28.6193 12.5 27.5 11.3807 27.5 10V7.5C27.5 6.11929 28.6193 5 30 5Z" fill="#EE7532"/>
<path d="M30 47.5C31.3807 47.5 32.5 48.6193 32.5 50V52.5C32.5 53.8807 31.3807 55 30 55C28.6193 55 27.5 53.8807 27.5 52.5V50C27.5 48.6193 28.6193 47.5 30 47.5Z" fill="#EE7532"/>
<path d="M52.5 32.5C53.8807 32.5 55 31.3807 55 30C55 28.6193 53.8807 27.5 52.5 27.5H50C48.6193 27.5 47.5 28.6193 47.5 30C47.5 31.3807 48.6193 32.5 50 32.5H52.5Z" fill="#EE7532"/>
<path d="M12.5 30C12.5 31.3807 11.3807 32.5 10 32.5H7.5C6.11929 32.5 5 31.3807 5 30C5 28.6193 6.11929 27.5 7.5 27.5H10C11.3807 27.5 12.5 28.6193 12.5 30Z" fill="#EE7532"/>
<path d="M42.3744 45.9099L44.1421 47.6777C45.1184 48.654 46.7014 48.654 47.6777 47.6777C48.654 46.7014 48.654 45.1184 47.6777 44.1421L45.9099 42.3744C44.9336 41.3981 43.3507 41.3981 42.3744 42.3744C41.3981 43.3507 41.3981 44.9336 42.3744 45.9099Z" fill="#EE7532"/>
<path d="M17.6256 17.6256C16.6493 18.6019 15.0664 18.6019 14.0901 17.6256L12.3223 15.8579C11.346 14.8816 11.346 13.2986 12.3223 12.3223C13.2986 11.346 14.8816 11.346 15.8579 12.3223L17.6256 14.0901C18.6019 15.0664 18.6019 16.6493 17.6256 17.6256Z" fill="#EE7532"/>
<path d="M12.3223 44.1421C11.346 45.1184 11.346 46.7014 12.3223 47.6777C13.2986 48.654 14.8816 48.654 15.8579 47.6777L17.6256 45.9099C18.6019 44.9336 18.6019 43.3507 17.6256 42.3744C16.6493 41.3981 15.0664 41.3981 14.0901 42.3744L12.3223 44.1421Z" fill="#EE7532"/>
<path d="M42.3744 17.6256C41.3981 16.6493 41.3981 15.0664 42.3744 14.0901L44.1421 12.3223C45.1184 11.346 46.7014 11.346 47.6777 12.3223C48.654 13.2986 48.654 14.8816 47.6777 15.8579L45.9099 17.6256C44.9336 18.6019 43.3507 18.6019 42.3744 17.6256Z" fill="#EE7532"/>
<path fill-rule="evenodd" clip-rule="evenodd" d="M30 16.25C22.4061 16.25 16.25 22.4061 16.25 30C16.25 37.5939 22.4061 43.75 30 43.75C37.5939 43.75 43.75 37.5939 43.75 30C43.75 22.4061 37.5939 16.25 30 16.25ZM21.25 30C21.25 25.1675 25.1675 21.25 30 21.25C34.8325 21.25 38.75 25.1675 38.75 30C38.75 34.8325 34.8325 38.75 30 38.75C25.1675 38.75 21.25 34.8325 21.25 30Z" fill="#EE7532"/>
</svg>
