<svg width="61" height="60" viewBox="0 0 61 60" fill="none" xmlns="http://www.w3.org/2000/svg">
<path fill-rule="evenodd" clip-rule="evenodd" d="M29.3758 11.3225C29.9394 12.1053 30.0024 13.1425 29.5376 13.9878C28.5581 15.7692 28 17.8157 28 20C28 26.9035 33.5964 32.5 40.5 32.5C42.6843 32.5 44.7308 31.9419 46.5122 30.9624C47.3574 30.4976 48.3947 30.5606 49.1775 31.1242C49.9603 31.6879 50.349 32.6516 50.1763 33.6006C48.4792 42.9279 40.3181 50 30.5 50C19.4543 50 10.5 41.0457 10.5 30C10.5 20.1819 17.572 12.0208 26.8994 10.3237C27.8484 10.151 28.8121 10.5397 29.3758 11.3225ZM23.2839 16.8458C18.6444 19.3968 15.5 24.3327 15.5 30C15.5 38.2843 22.2157 45 30.5 45C36.1672 45 41.1032 41.8556 43.6542 37.2161C42.6304 37.4026 41.5761 37.5 40.5 37.5C30.835 37.5 23 29.665 23 20C23 18.9239 23.0974 17.8696 23.2839 16.8458Z" fill="#EE7532"/>
</svg>
