<svg width="34" height="32" viewBox="0 0 34 32" fill="none" xmlns="http://www.w3.org/2000/svg">
<g id="prayer hands">
<g id="Group">
<g id="Group_2">
<path id="Vector" d="M10.6138 12.8159C10.5688 12.8159 10.5238 12.8059 10.4838 12.7809C10.3688 12.7109 10.3338 12.5559 10.4038 12.4409L14.1093 6.5C14.3794 6.06994 14.2594 5.50985 13.8393 5.22481C13.6293 5.08479 13.3792 5.03478 13.1392 5.08479C12.8942 5.1348 12.6841 5.27482 12.5441 5.48485L8.56351 11.5007C8.4885 11.6158 8.33348 11.6458 8.22346 11.5708C8.10844 11.4957 8.07844 11.3407 8.15345 11.2307L12.129 5.20981C12.3391 4.88976 12.6641 4.67473 13.0392 4.59972C13.4142 4.52471 13.7943 4.59972 14.1093 4.80975C14.7544 5.23981 14.9395 6.09494 14.5244 6.75504L10.8238 12.7009C10.7738 12.7759 10.6938 12.8159 10.6138 12.8159Z" fill="#EE7532" stroke="#EE7532"/>
</g>
<g id="Group_3">
<path id="Vector_2" d="M6.3285 10.0305C6.27849 10.0305 6.22848 10.0155 6.18848 9.98554C6.07846 9.90552 6.05346 9.7555 6.12847 9.64048L9.74901 4.52972C10.2041 3.88463 11.0992 3.7346 11.7393 4.18967C12.1144 4.45471 12.3344 4.88978 12.3344 5.34984C12.3344 5.63989 12.2494 5.91493 12.0894 6.14496C12.0143 6.25998 11.8593 6.28498 11.7493 6.20997C11.6393 6.13496 11.6093 5.97994 11.6843 5.86992C11.7893 5.7199 11.8393 5.53987 11.8393 5.34984C11.8393 5.0448 11.6993 4.76476 11.4493 4.58973C11.0292 4.28969 10.4441 4.3947 10.1441 4.81476L6.52353 9.92553C6.48352 9.99554 6.40351 10.0305 6.3285 10.0305Z" fill="#EE7532" stroke="#EE7532"/>
</g>
<g id="Group_4">
<path id="Vector_3" d="M12.2743 14.5662C12.2293 14.5662 12.1843 14.5562 12.1443 14.5262C12.0293 14.4562 11.9943 14.3012 12.0643 14.1862L15.3898 8.89039C15.6598 8.46032 15.5398 7.90024 15.1198 7.6152C14.9097 7.47518 14.6597 7.42517 14.4197 7.47518C14.1746 7.52518 13.9646 7.6652 13.8246 7.87524C13.7496 7.99025 13.5945 8.02026 13.4845 7.94525C13.3695 7.87023 13.3395 7.71521 13.4145 7.6052C13.6245 7.28515 13.9496 7.07012 14.3246 6.9951C14.6947 6.92009 15.0798 6.9951 15.3948 7.20514C16.0399 7.6352 16.2249 8.49033 15.8099 9.15043L12.4794 14.4512C12.4344 14.5262 12.3544 14.5662 12.2743 14.5662Z" fill="#EE7532" stroke="#EE7532"/>
</g>
<g id="Group_5">
<path id="Vector_4" d="M2.91307 22.7474C2.87307 22.7474 2.83306 22.7374 2.79805 22.7174C2.67804 22.6524 2.63303 22.5024 2.69804 22.3824C2.80806 22.1723 2.92307 21.9823 3.02309 21.8123C3.26312 21.4072 3.31313 20.9572 3.17811 20.5371C3.0731 20.2371 2.99308 19.902 2.92807 19.647C2.433 17.5467 2.61303 16.0814 3.1081 14.1111C3.33313 13.221 3.51316 11.6308 3.66818 9.25542C3.69319 8.91037 3.83821 8.58532 4.08825 8.33028C4.34829 8.07025 4.66333 7.92022 5.00338 7.89022C5.40344 7.86021 5.7935 7.99023 6.09355 8.26527C6.38859 8.53531 6.56362 8.92037 6.56862 9.32043L6.64363 13.5511C8.68893 14.9213 8.35888 17.3966 8.33888 17.5016C8.31888 17.6367 8.18886 17.7267 8.05884 17.7117C7.92382 17.6917 7.8288 17.5667 7.84881 17.4316C7.86381 17.3366 8.15885 15.0763 6.26357 13.8961C6.19356 13.8511 6.14855 13.7761 6.14855 13.6911L6.06854 9.33043C6.06354 9.06039 5.95353 8.81036 5.7535 8.63033C5.55347 8.4503 5.29843 8.36029 5.03339 8.38029C4.81836 8.39529 4.60832 8.50031 4.4333 8.67033C4.26827 8.84036 4.16826 9.05539 4.15326 9.28543C3.99823 11.6958 3.81321 13.311 3.58317 14.2312C3.0931 16.1715 2.93308 17.5217 3.40315 19.532C3.46315 19.777 3.54317 20.097 3.64318 20.3821C3.82321 20.9372 3.7582 21.5373 3.46815 22.0323C3.35314 22.2274 3.24312 22.4124 3.13811 22.6174C3.0881 22.7024 3.00309 22.7474 2.91307 22.7474Z" fill="#EE7532" stroke="#EE7532"/>
</g>
<g id="Group_6">
<path id="Vector_5" d="M9.20867 25.0678C9.18367 25.0678 9.15866 25.0628 9.13366 25.0578C9.00364 25.0178 8.93363 24.8778 8.97363 24.7477L9.28368 23.7976C9.35369 23.5876 9.49871 23.4175 9.69374 23.3125C13.7844 21.1272 13.5793 18.0517 13.4943 16.7366L13.4843 16.5815C13.4793 16.5365 13.4893 16.4915 13.5143 16.4515L16.1447 11.5608C16.2297 11.3958 16.2747 11.2207 16.2747 11.0507C16.2747 10.8457 16.2097 10.5656 15.8897 10.3756C15.7246 10.2756 15.5546 10.2456 15.3946 10.2856C15.1646 10.3456 14.9395 10.5406 14.7645 10.8407C14.6945 10.9557 14.5445 10.9957 14.4294 10.9257C14.3144 10.8557 14.2744 10.7057 14.3444 10.5906C14.5895 10.1806 14.9195 9.90053 15.2796 9.81052C15.5696 9.73551 15.8697 9.78552 16.1447 9.95054C16.5448 10.1856 16.7698 10.5856 16.7698 11.0507C16.7698 11.3007 16.7048 11.5558 16.5798 11.7958L13.9844 16.6265L13.9894 16.7115C14.0844 18.1218 14.3044 21.4172 9.92878 23.7526C9.84376 23.7976 9.77875 23.8726 9.75375 23.9576L9.4437 24.9078C9.4087 24.9978 9.30868 25.0678 9.20867 25.0678Z" fill="#EE7532" stroke="#EE7532"/>
</g>
<g id="Group_7">
<path id="Vector_6" d="M8.55374 28.0732C8.52374 28.0732 8.49373 28.0682 8.46373 28.0532C8.33871 28.0032 8.2787 27.8582 8.32871 27.7332L9.36886 25.1378L2.54785 22.6274L1.47268 25.2578C1.42268 25.3828 1.27766 25.4428 1.15264 25.3928C1.02762 25.3428 0.96761 25.1978 1.01762 25.0728L2.18279 22.2274C2.2328 22.1023 2.37282 22.0423 2.49784 22.0873L9.77892 24.7727C9.84393 24.7977 9.89394 24.8427 9.91894 24.9028C9.94395 24.9628 9.94895 25.0328 9.92394 25.0928L8.78877 27.9232C8.74377 28.0182 8.65375 28.0732 8.55374 28.0732Z" fill="#EE7532" stroke="#EE7532"/>
</g>
<g id="Group_8">
<path id="Vector_7" d="M23.3861 12.8159C23.3061 12.8159 23.2261 12.7759 23.1761 12.7009L19.4705 6.76004C19.0554 6.09995 19.2405 5.24982 19.8856 4.81475C20.2006 4.60472 20.5807 4.52971 20.9607 4.60472C21.3358 4.67973 21.6558 4.89477 21.8659 5.21481L25.8415 11.2357C25.9165 11.3507 25.8865 11.5008 25.7715 11.5758C25.6564 11.6508 25.5064 11.6208 25.4314 11.5058L21.4558 5.48485C21.3158 5.27982 21.1058 5.1348 20.8607 5.08479C20.6157 5.03479 20.3656 5.08479 20.1606 5.22482C19.7355 5.50986 19.6155 6.06494 19.8906 6.50001L23.5961 12.4459C23.6661 12.5609 23.6311 12.7109 23.5161 12.7859C23.4761 12.8059 23.4311 12.8159 23.3861 12.8159Z" fill="#EE7532" stroke="#EE7532"/>
</g>
<g id="Group_9">
<path id="Vector_8" d="M27.6715 10.0306C27.5965 10.0306 27.5165 9.99555 27.4715 9.92554L23.851 4.81478C23.5509 4.39472 22.9708 4.2947 22.5458 4.58975C22.3007 4.76477 22.1557 5.04481 22.1557 5.34986C22.1557 5.53989 22.2107 5.71992 22.3107 5.86994C22.3858 5.97995 22.3608 6.13498 22.2457 6.20999C22.1357 6.285 21.9807 6.26 21.9057 6.14498C21.7457 5.90994 21.6606 5.6349 21.6606 5.34986C21.6606 4.88979 21.8857 4.45473 22.2557 4.18969C22.9008 3.73462 23.796 3.88964 24.246 4.52974L27.8666 9.6405C27.9466 9.75052 27.9166 9.90554 27.8066 9.98555C27.7716 10.0156 27.7215 10.0306 27.6715 10.0306Z" fill="#EE7532" stroke="#EE7532"/>
</g>
<g id="Group_10">
<path id="Vector_9" d="M21.7258 14.5662C21.6458 14.5662 21.5657 14.5262 21.5157 14.4512L18.1902 9.15543C17.7752 8.49533 17.9602 7.6402 18.6053 7.21014C18.9203 7.00011 19.3054 6.9251 19.6755 7.00011C20.0505 7.07512 20.3706 7.29015 20.5856 7.6102C20.6606 7.72522 20.6306 7.87524 20.5156 7.95025C20.4006 8.02526 20.2505 7.99526 20.1755 7.88024C20.0355 7.67021 19.8255 7.53019 19.5804 7.48018C19.3354 7.43017 19.0854 7.48018 18.8803 7.6202C18.4553 7.90524 18.3353 8.46033 18.6103 8.89539L21.9358 14.1912C22.0058 14.3062 21.9758 14.4562 21.8558 14.5312C21.8158 14.5562 21.7708 14.5662 21.7258 14.5662Z" fill="#EE7532" stroke="#EE7532"/>
</g>
<g id="Group_11">
<path id="Vector_10" d="M31.0869 22.7474C30.9969 22.7474 30.9119 22.7024 30.8719 22.6174C30.7569 22.4024 30.6418 22.2024 30.5418 22.0323C30.2518 21.5423 30.1868 20.9422 30.3668 20.3871C30.4668 20.097 30.5468 19.777 30.6068 19.532C31.0769 17.5217 30.9169 16.1715 30.4268 14.2312C30.1968 13.311 30.0068 11.6958 29.8517 9.28543C29.8367 9.06039 29.7367 8.84036 29.5717 8.67033C29.4017 8.50031 29.1916 8.39529 28.9666 8.38029C28.7066 8.36029 28.4465 8.4503 28.2515 8.63033C28.0515 8.81036 27.9414 9.06039 27.9364 9.33043L27.8564 13.6911C27.8564 13.7761 27.8114 13.8511 27.7414 13.8961C25.8411 15.0813 26.1562 17.4066 26.1562 17.4316C26.1762 17.5667 26.0812 17.6917 25.9461 17.7117C25.8111 17.7317 25.6861 17.6367 25.6661 17.5016C25.6511 17.3966 25.3211 14.9213 27.3614 13.5511L27.4364 9.32043C27.4414 8.92037 27.6164 8.53531 27.9114 8.26527C28.2115 7.99023 28.5965 7.86021 28.9966 7.89022C29.3367 7.92022 29.6567 8.07525 29.9117 8.32528C30.1618 8.58032 30.3118 8.91037 30.3368 9.25542C30.4918 11.6358 30.6718 13.226 30.8969 14.1161C31.397 16.0864 31.572 17.5517 31.0769 19.652C31.0169 19.912 30.9319 20.2421 30.8269 20.5471C30.6919 20.9622 30.7419 21.4172 30.9619 21.7873C31.0669 21.9673 31.1869 22.1723 31.3019 22.3924C31.367 22.5124 31.3219 22.6624 31.2019 22.7274C31.1619 22.7374 31.1269 22.7474 31.0869 22.7474Z" fill="#EE7532" stroke="#EE7532"/>
</g>
<g id="Group_12">
<path id="Vector_11" d="M24.7911 25.0678C24.6861 25.0678 24.5911 25.0028 24.5561 24.8978L24.246 23.9476C24.216 23.8626 24.156 23.7876 24.071 23.7426C19.7003 21.4072 19.9204 18.1067 20.0104 16.7015L20.0154 16.6165L17.42 11.7858C17.295 11.5458 17.23 11.2907 17.23 11.0407C17.23 10.5756 17.46 10.1756 17.8601 9.94053C18.1351 9.77551 18.4402 9.7255 18.7252 9.80051C19.0853 9.89052 19.4153 10.1706 19.6603 10.5806C19.7304 10.6956 19.6903 10.8507 19.5753 10.9157C19.4603 10.9857 19.3053 10.9457 19.2403 10.8307C19.0653 10.5306 18.8402 10.3356 18.6102 10.2756C18.4502 10.2356 18.2851 10.2656 18.1151 10.3656C17.7951 10.5556 17.7251 10.8357 17.7251 11.0407C17.7251 11.2107 17.7701 11.3907 17.8601 11.5558L20.4855 16.4465C20.5055 16.4865 20.5155 16.5315 20.5155 16.5765L20.5055 16.7315C20.4205 18.0467 20.2104 21.1222 24.306 23.3075C24.5061 23.4125 24.6511 23.5876 24.7211 23.7926L25.0311 24.7427C25.0711 24.8728 25.0011 25.0128 24.8711 25.0528C24.8461 25.0628 24.8211 25.0678 24.7911 25.0678Z" fill="#EE7532" stroke="#EE7532"/>
</g>
<g id="Group_13">
<path id="Vector_12" d="M25.4464 28.0732C25.3463 28.0732 25.2563 28.0132 25.2163 27.9182L24.0812 25.0878C24.0562 25.0278 24.0562 24.9578 24.0862 24.8977C24.1112 24.8377 24.1612 24.7877 24.2262 24.7677L31.5023 22.0823C31.6273 22.0373 31.7673 22.0973 31.8173 22.2224L32.9825 25.0678C33.0325 25.1928 32.9725 25.3378 32.8475 25.3878C32.7224 25.4378 32.5774 25.3778 32.5274 25.2528L31.4523 22.6224L24.6312 25.1378L25.6714 27.7332C25.7214 27.8582 25.6614 28.0032 25.5364 28.0532C25.5064 28.0682 25.4764 28.0732 25.4464 28.0732Z" fill="#EE7532" stroke="#EE7532"/>
</g>
</g>
</g>
</svg>
