<svg width="39" height="40" viewBox="0 0 39 40" fill="none" xmlns="http://www.w3.org/2000/svg">
<path fill-rule="evenodd" clip-rule="evenodd" d="M19.5 1C29.9933 1 38.5 9.50667 38.5 20C38.5 30.4933 29.9933 39 19.5 39C9.00667 39 0.5 30.4933 0.5 20C0.5 9.50667 9.00667 1 19.5 1ZM26.7038 20.9904V19.0092H12.2962V20.9904H26.7038ZM31.5344 7.96557C24.8881 1.31928 14.1123 1.31928 7.46599 7.96557C0.819707 14.6119 0.819707 25.3881 7.46599 32.034C14.1123 38.6799 24.8886 38.6803 31.5344 32.034C38.1803 25.3881 38.1807 14.6119 31.5344 7.96557Z" fill="#EE7532" stroke="#EE7532"/>
</svg>
