<svg width="39" height="40" viewBox="0 0 39 40" fill="none" xmlns="http://www.w3.org/2000/svg">
<path d="M19.5 1C15.7422 1 12.0687 2.11433 8.94417 4.20208C5.81964 6.28982 3.38436 9.25722 1.9463 12.729C0.508232 16.2008 0.131969 20.0211 0.865088 23.7067C1.59821 27.3924 3.40778 30.7778 6.06498 33.435C8.72218 36.0922 12.1077 37.9018 15.7933 38.6349C19.4789 39.368 23.2992 38.9918 26.771 37.5537C30.2428 36.1156 33.2102 33.6804 35.2979 30.5558C37.3857 27.4313 38.5 23.7578 38.5 20C38.4943 14.9626 36.4907 10.1332 32.9288 6.57124C29.3668 3.00928 24.5374 1.00568 19.5 1ZM19.5 37.0345C16.1309 37.0345 12.8375 36.0354 10.0362 34.1636C7.23485 32.2919 5.0515 29.6315 3.7622 26.5188C2.4729 23.4062 2.13556 19.9811 2.79284 16.6767C3.45012 13.3724 5.07249 10.3371 7.45481 7.9548C9.83712 5.57249 12.8724 3.95011 16.1767 3.29283C19.4811 2.63555 22.9062 2.97289 26.0188 4.26219C29.1315 5.55149 31.7919 7.73484 33.6637 10.5361C35.5354 13.3375 36.5345 16.6309 36.5345 20C36.5294 24.5163 34.733 28.8461 31.5396 32.0395C28.3461 35.233 24.0163 37.0294 19.5 37.0345Z" fill="#EE7532" stroke="#EE7532"/>
<path d="M28.7073 19.0173H20.4828V10.7928C20.4828 10.5322 20.3792 10.2822 20.1949 10.0979C20.0106 9.9136 19.7606 9.81006 19.5 9.81006C19.2394 9.81006 18.9894 9.9136 18.8051 10.0979C18.6208 10.2822 18.5172 10.5322 18.5172 10.7928V19.0173H10.2927C10.0321 19.0173 9.78211 19.1209 9.59781 19.3052C9.41351 19.4895 9.30997 19.7395 9.30997 20.0001C9.30997 20.2607 9.41351 20.5107 9.59781 20.695C9.78211 20.8793 10.0321 20.9829 10.2927 20.9829H18.5172V29.2074C18.5172 29.468 18.6208 29.718 18.8051 29.9023C18.9894 30.0866 19.2394 30.1901 19.5 30.1901C19.7606 30.1901 20.0106 30.0866 20.1949 29.9023C20.3792 29.718 20.4828 29.468 20.4828 29.2074V20.9829H28.7073C28.9679 20.9829 29.2179 20.8793 29.4022 20.695C29.5865 20.5107 29.69 20.2607 29.69 20.0001C29.69 19.7395 29.5865 19.4895 29.4022 19.3052C29.2179 19.1209 28.9679 19.0173 28.7073 19.0173Z" fill="#EE7532"/>
</svg>
