<svg width="61" height="60" viewBox="0 0 61 60" fill="none" xmlns="http://www.w3.org/2000/svg">
<path d="M58.5968 9.96632H54.5901V5.95964C54.5901 5.42832 54.3791 4.91876 54.0034 4.54306C53.6277 4.16736 53.1181 3.9563 52.5868 3.9563H43.1511C40.4226 4.07818 37.786 4.97868 35.553 6.55136C33.32 8.12403 31.584 10.3031 30.5501 12.8311C29.5162 10.3031 27.7801 8.12403 25.5471 6.55136C23.3141 4.97868 20.6776 4.07818 17.9491 3.9563H8.51336C7.98204 3.9563 7.47248 4.16736 7.09678 4.54306C6.72108 4.91876 6.51002 5.42832 6.51002 5.95964V9.96632H2.50334C1.97202 9.96632 1.46246 10.1774 1.08676 10.5531C0.711065 10.9288 0.5 11.4383 0.5 11.9697V46.0264C0.5 46.5577 0.711065 47.0673 1.08676 47.443C1.46246 47.8187 1.97202 48.0298 2.50334 48.0298H14.5234C21.9958 48.0298 27.7654 51.3753 28.5467 54.4805C28.6485 54.9324 28.9038 55.3351 29.269 55.62C29.6343 55.9049 30.087 56.0544 30.5501 56.0431C30.7966 56.037 31.0404 55.9896 31.2713 55.9029C31.4927 55.8129 31.6963 55.684 31.8723 55.5222C32.0343 55.3599 32.1756 55.1783 32.293 54.9813C32.3701 54.8513 32.4243 54.709 32.4533 54.5606C33.1745 51.4555 38.9441 48.1099 46.4766 48.1099H58.4967C59.028 48.1099 59.5375 47.8988 59.9132 47.5231C60.2889 47.1474 60.5 46.6379 60.5 46.1065V11.9697C60.5006 11.4552 60.3034 10.9603 59.9491 10.5874C59.5948 10.2144 59.1106 9.99204 58.5968 9.96632ZM14.5234 44.0231H4.50668V13.973H6.51002V40.0164C6.51002 40.5477 6.72108 41.0573 7.09678 41.433C7.47248 41.8087 7.98204 42.0197 8.51336 42.0197H17.9491C18.3024 41.9899 18.6576 41.9899 19.0109 42.0197C20.3506 42.2501 21.6294 42.7508 22.7694 43.4913C23.9094 44.2318 24.8867 45.1966 25.6419 46.3269C22.1534 44.741 18.3548 43.9539 14.5234 44.0231ZM28.5467 43.6224L28.3664 43.4221C27.1372 41.8072 25.5655 40.4847 23.7643 39.5494C21.9631 38.6142 19.9771 38.0895 17.9491 38.0131H10.5167V7.96298H17.9491C23.1177 7.96298 27.485 12.8311 28.3664 19.5423C28.3552 19.6153 28.3552 19.6896 28.3664 19.7626C28.4777 20.4988 28.5379 21.2418 28.5467 21.9863V43.6224ZM32.7337 43.4221L32.5534 43.6224V21.9863C32.549 21.2428 32.5958 20.4998 32.6937 19.7626C32.7049 19.6896 32.7049 19.6153 32.6937 19.5423C33.6152 12.8311 37.9825 7.96298 43.1511 7.96298H50.5835V38.0131H43.1511C42.662 38.0158 42.1735 38.0493 41.6886 38.1132H41.2279C37.8309 38.755 34.7991 40.6498 32.7337 43.4221ZM56.5935 44.0231H46.5768C42.7418 43.9828 38.9452 44.79 35.4583 46.387C36.2145 45.2518 37.1912 44.2803 38.3303 43.53C39.4694 42.7798 40.7478 42.2662 42.0893 42.0197C42.4426 41.9899 42.7978 41.9899 43.1511 42.0197H52.5868C53.1181 42.0197 53.6277 41.8087 54.0034 41.433C54.3791 41.0573 54.5901 40.5477 54.5901 40.0164V13.973H56.5935V44.0231Z" fill="#EE7532"/>
</svg>
