<svg width="13" height="33" viewBox="0 0 13 33" fill="none" xmlns="http://www.w3.org/2000/svg">
<path fill-rule="evenodd" clip-rule="evenodd" d="M4.93409 1.40245C4.93409 0.786906 5.54701 0.494215 6.77109 0L6.80581 0.01498C8.0068 0.533092 8.60877 0.792782 8.60876 1.40248C8.60876 2.01802 7.87808 2.45404 7.42625 2.65067C6.97442 2.8473 7.43528 3.02728 7.43528 3.02728C8.76921 3.65992 9.37149 4.27438 9.37149 4.58215V8.78583H10.1478V8.61725H10.8338V9.67715L9.6739 10.1901V14.3633H11.1362V14.209H11.9893V15.2241L10.062 16.5512V21.6641V21.665C10.062 22.2631 10.062 22.8276 10.7932 23.2549C11.5247 23.6824 11.6146 24.3381 11.6146 24.3381V26.804H13.001V33H0.000976562V27.1017C0.000976562 27.1017 0.657032 26.816 1.0526 26.804C1.28175 26.797 1.32579 26.8509 1.3696 26.9046C1.40143 26.9435 1.43313 26.9824 1.53554 26.9976C1.63391 27.0123 1.78529 26.9945 1.93272 26.9689V24.3381C1.93272 24.3381 2.02263 23.6823 2.75416 23.2549C3.48534 22.8276 3.48534 22.2631 3.48533 21.665V21.6641V16.5512L1.55359 15.2241V14.209H2.41114V14.3632H3.87349V10.19L2.70903 9.67712V8.61722H3.39957V8.7858H4.17588V4.58212C4.17588 4.27435 4.77814 3.6599 6.1121 3.02725C6.1121 3.02725 6.57296 2.84727 6.12113 2.65064C5.66929 2.45403 4.93409 2.01799 4.93409 1.40245ZM4.97479 6.81311H4.58212V8.77148H4.97479V6.81311ZM7.24056 6.81311H6.13025V8.77148H7.24056V6.81311ZM8.79321 6.81311H8.40054V8.77148H8.79321V6.81311Z" fill="#69535E" fill-opacity="0.25"/>
</svg>
