<svg width="63" height="60" viewBox="0 0 63 60" fill="none" xmlns="http://www.w3.org/2000/svg">
<path d="M61.2124 20.512V20.5011C61.2097 20.4948 61.2065 20.4889 61.2028 20.4832V20.4709C60.9391 19.9325 60.5158 19.4886 59.9906 19.1997C59.4654 18.9107 58.8638 18.7909 58.2679 18.8565C56.7701 19.002 55.2996 19.3545 53.8985 19.9039C53.3746 18.8516 52.7692 17.8419 52.0879 16.8839C52.0879 16.8839 52.0879 16.8839 52.0879 16.8757C49.9971 13.9283 47.2315 11.5238 44.0222 9.86283C40.8128 8.2019 37.2527 7.33274 33.639 7.3279C30.0253 7.32306 26.4628 8.18269 23.249 9.83503C20.0352 11.4874 17.2632 13.8845 15.1645 16.8263C15.1494 16.8428 15.1329 16.8579 15.1192 16.8757C15.0958 16.9065 15.0756 16.9397 15.0588 16.9745C12.3684 20.7863 10.9267 25.3388 10.9324 30.0044C10.9324 30.5109 10.9516 31.0216 10.986 31.5295C9.75051 31.2618 9.11768 30.7704 8.8047 30.3064C7.13273 27.8355 11.0011 22.2636 12.6332 20.3281C12.7382 20.2043 12.7922 20.0452 12.7842 19.883C12.7763 19.7209 12.707 19.5678 12.5904 19.4549C12.4738 19.3419 12.3186 19.2775 12.1563 19.2748C11.9939 19.272 11.8366 19.331 11.7162 19.4399C11.1905 19.9122 -1.13791 31.0984 2.01523 37.4061C3.33167 40.0403 6.968 41.3527 13.0272 41.3527C13.3365 41.3527 13.6513 41.349 13.9716 41.3417C15.9648 44.7839 18.8271 47.6423 22.2721 49.6308C25.717 51.6192 29.6238 52.668 33.6015 52.6721C46.1015 52.6721 56.2692 42.503 56.2692 30.0044C56.2694 29.0406 56.2089 28.0778 56.088 27.1217C57.8055 26.2851 59.3629 25.1538 60.6894 23.7791C61.0999 23.3532 61.3701 22.8117 61.4636 22.2276C61.5571 21.6435 61.4694 21.0448 61.2124 20.512ZM52.0248 20.7866L49.083 19.709C49.8728 19.234 50.6507 18.7206 51.4167 18.1688C51.8979 18.8904 52.3343 19.6408 52.7235 20.4159C52.4846 20.5331 52.2517 20.6548 52.0248 20.7811V20.7866ZM50.6754 17.1324C49.6636 17.8653 48.6094 18.5378 47.5181 19.1462L42.2647 17.2381C40.3564 14.0972 38.037 11.2252 35.3682 8.69841C38.3674 8.95377 41.2797 9.83594 43.9165 11.2878C46.5533 12.7397 48.8559 14.729 50.6754 17.1269V17.1324ZM38.7945 20.6562L40.4226 21.9053C38.3981 22.3811 36.3249 22.6179 34.2453 22.6109V9.39712C36.5607 11.5619 38.6174 13.9877 40.3745 16.6259C39.9604 16.5935 39.5454 16.6752 39.1744 16.862C38.8034 17.0488 38.4907 17.3337 38.2701 17.6856C37.9711 18.1559 37.859 18.7212 37.9561 19.2701C38.0531 19.8189 38.3523 20.3115 38.7945 20.6507V20.6562ZM32.9618 9.39987V22.578C30.0591 22.4213 27.1919 21.8647 24.4414 20.9238C27.0221 15.352 31.0675 11.1693 32.9618 9.39987ZM31.8307 8.69017C29.7401 10.6532 25.7564 14.8674 23.2018 20.4805C20.8674 19.603 18.6351 18.4749 16.5441 17.1159C18.3562 14.7153 20.6543 12.724 23.2885 11.2721C25.9226 9.82022 28.8334 8.94041 31.8307 8.69017ZM12.2132 30.0044C12.2088 25.7872 13.4578 21.6638 15.8015 18.1578C17.9674 19.5679 20.2798 20.7393 22.698 21.6514C21.5998 24.3639 20.8709 27.3701 20.8366 30.5864C16.8241 31.5693 14.1103 31.8219 12.2804 31.7024C12.2351 31.1383 12.2132 30.5686 12.2132 30.0044ZM3.16008 36.8337C1.66381 33.848 4.79773 28.9309 8.06755 25.0722C7.12724 27.1574 6.64953 29.4018 7.74359 31.0216C9.77384 34.0306 16.3574 33.6544 27.8704 29.8726C27.9503 29.8463 28.0242 29.8045 28.0879 29.7496C28.1516 29.6947 28.2039 29.6279 28.2417 29.5528C28.2796 29.4777 28.3023 29.3959 28.3085 29.312C28.3148 29.2282 28.3044 29.1439 28.2781 29.0641C28.2518 28.9842 28.21 28.9103 28.1551 28.8466C28.1002 28.7829 28.0334 28.7306 27.9583 28.6928C27.8832 28.6549 27.8014 28.6322 27.7175 28.626C27.6337 28.6197 27.5494 28.6301 27.4696 28.6564C25.4887 29.3084 23.7138 29.8355 22.1228 30.2583C22.2038 27.3454 22.9039 24.5959 23.9293 22.0962C26.8429 23.103 29.8834 23.6954 32.9618 23.856V26.1031C32.9618 26.2728 33.0292 26.4355 33.1492 26.5554C33.2692 26.6754 33.4319 26.7428 33.6015 26.7428C33.7712 26.7428 33.9339 26.6754 34.0538 26.5554C34.1738 26.4355 34.2412 26.2728 34.2412 26.1031V23.8889H34.3332C36.8273 23.8927 39.3106 23.5598 41.7157 22.8992L44.4268 24.9871L37.3573 28.9062L31.9886 27.5019C31.8705 27.4715 31.7462 27.4755 31.6303 27.5132C31.5144 27.551 31.4116 27.621 31.3341 27.7151C31.2566 27.8092 31.2075 27.9235 31.1926 28.0445C31.1777 28.1655 31.1976 28.2882 31.25 28.3983L36.3566 39.0012C36.4089 39.1097 36.4908 39.2012 36.5927 39.2653C36.6947 39.3294 36.8127 39.3634 36.9331 39.3636H36.9427C37.065 39.3616 37.1842 39.3247 37.2862 39.257C37.3881 39.1894 37.4685 39.0939 37.5179 38.982L39.7678 33.9029L45.0665 31.7066C44.7713 38.4233 41.135 44.7913 34.2412 50.6652V40.3972C34.2412 40.2276 34.1738 40.0649 34.0538 39.9449C33.9339 39.825 33.7712 39.7576 33.6015 39.7576C33.4319 39.7576 33.2692 39.825 33.1492 39.9449C33.0292 40.0649 32.9618 40.2276 32.9618 40.3972V50.6693C29.0866 47.3679 26.2204 43.8853 24.4208 40.2943C26.2062 40.0115 28.0992 39.6725 30.0997 39.2771L33.7264 38.5496C33.8088 38.5331 33.8871 38.5005 33.9569 38.4537C34.0267 38.407 34.0866 38.3469 34.1332 38.277C34.1798 38.2071 34.2122 38.1287 34.2285 38.0463C34.2448 37.9638 34.2447 37.879 34.2282 37.7966C34.2117 37.7143 34.1791 37.6359 34.1323 37.5661C34.0856 37.4963 34.0255 37.4364 33.9556 37.3898C33.8857 37.3432 33.8073 37.3109 33.7249 37.2946C33.6424 37.2783 33.5576 37.2784 33.4752 37.2949L29.8526 38.0224C10.2227 41.9018 4.5026 39.5187 3.16008 36.8337ZM15.4391 41.2895C17.7095 41.177 20.2637 40.9125 23.1016 40.4961C24.9053 44.2505 27.8086 47.8799 31.7497 51.309C28.4405 51.0171 25.2444 49.96 22.4138 48.2211C19.5832 46.4823 17.1954 44.1093 15.4391 41.2895ZM35.4657 51.3104C42.5901 45.1139 46.2539 38.3478 46.3692 31.1726L47.2395 30.8129L47.1187 37.9195C47.1087 38.4813 47.3107 39.0263 47.6843 39.446C48.058 39.8657 48.576 40.1294 49.1352 40.1845C49.2168 40.1938 49.2988 40.1983 49.3809 40.1982C49.8496 40.1967 50.3061 40.0491 50.6869 39.776C51.0678 39.5029 51.3541 39.1179 51.5059 38.6745L54.9377 28.4587C54.9734 28.9721 54.9926 29.4882 54.9926 30.003C54.9899 41.1728 46.3857 50.3673 35.4588 51.3117L35.4657 51.3104ZM59.7367 22.9225C58.3061 24.4009 56.5866 25.5691 54.6851 26.3543C54.657 26.3668 54.6299 26.3815 54.6041 26.3983C54.4978 26.4214 54.3993 26.4715 54.3178 26.5436C54.2364 26.6157 54.1747 26.7074 54.1388 26.8101L50.2855 38.2682C50.2117 38.4784 50.0679 38.657 49.8784 38.7742C49.6888 38.8913 49.4648 38.94 49.2437 38.912C49.0069 38.8848 48.7886 38.7705 48.6313 38.5914C48.4741 38.4123 48.389 38.1812 48.3926 37.9428L48.5298 29.8616C48.5312 29.8369 48.5312 29.8122 48.5298 29.7875C48.5298 29.7697 48.5298 29.7518 48.5298 29.734V29.7202C48.5224 29.6831 48.5114 29.6468 48.4969 29.6118C48.4969 29.6022 48.4859 29.5939 48.4818 29.5843C48.4695 29.5564 48.4553 29.5293 48.4392 29.5033C48.4269 29.4855 48.4118 29.469 48.3981 29.4526C48.3865 29.4373 48.3741 29.4226 48.361 29.4086C48.3446 29.3929 48.3272 29.3782 48.3088 29.3647C48.2899 29.3471 48.2692 29.3315 48.2471 29.318C48.2306 29.307 48.2127 29.2974 48.1949 29.2878C48.177 29.2782 48.1578 29.2659 48.1386 29.2576L48.0851 29.2398C48.064 29.2321 48.0424 29.2257 48.0206 29.2206C47.9974 29.2165 47.974 29.2137 47.9506 29.2123C47.9327 29.2123 47.9162 29.2123 47.8984 29.2123H47.8668C47.7873 29.2135 47.7089 29.2308 47.6362 29.2631L45.4851 30.1526H45.4769L39.0416 32.8185C39.0279 32.8185 39.0155 32.8322 39.0018 32.8391C38.9881 32.8459 38.9579 32.861 38.9373 32.8734C38.9204 32.8851 38.9044 32.8979 38.8892 32.9118C38.8718 32.9239 38.8553 32.9372 38.8398 32.9516C38.8247 32.9667 38.811 32.9846 38.7973 33.001C38.7835 33.0175 38.7712 33.0299 38.7602 33.0463C38.747 33.0666 38.7351 33.0877 38.7245 33.1095C38.7163 33.1232 38.708 33.1356 38.7012 33.1493L36.9166 37.1919L33.0099 29.0833L37.2873 30.2021H37.2941C37.3275 30.2103 37.3615 30.2158 37.3957 30.2185H37.4314H37.4492C37.4771 30.22 37.5051 30.22 37.533 30.2185H37.5604C37.5879 30.2185 37.614 30.2062 37.6414 30.1979L37.6716 30.1883C37.702 30.1776 37.7314 30.1643 37.7595 30.1485L37.7718 30.1417L45.9038 25.6405H45.9121C45.9441 25.6215 45.9748 25.6004 46.004 25.5774L46.0205 25.5609C46.0441 25.5405 46.0657 25.518 46.085 25.4936L46.1001 25.4772C46.125 25.4441 46.1466 25.4087 46.1646 25.3715C46.1715 25.3591 46.1743 25.3454 46.1797 25.333C46.1914 25.3082 46.201 25.2825 46.2086 25.2562C46.2086 25.2397 46.2154 25.2232 46.2182 25.2067C46.2232 25.1827 46.2268 25.1584 46.2292 25.134C46.2292 25.1175 46.2292 25.101 46.2292 25.0832C46.2305 25.059 46.2305 25.0347 46.2292 25.0104C46.2268 24.9919 46.2232 24.9735 46.2182 24.9555C46.2146 24.9337 46.2096 24.9121 46.2031 24.891C46.1932 24.8618 46.1813 24.8334 46.1674 24.8059C46.1674 24.7963 46.1605 24.7867 46.155 24.7771C46.1346 24.7406 46.1107 24.7061 46.0837 24.6741C46.0699 24.659 46.0535 24.6453 46.0397 24.6316C46.0243 24.6154 46.0078 24.6003 45.9903 24.5863L39.5866 19.6555C39.4058 19.5124 39.2815 19.31 39.2359 19.084C39.1902 18.8581 39.2262 18.6233 39.3373 18.4213C39.4484 18.2193 39.6275 18.0633 39.8428 17.9808C40.058 17.8984 40.2956 17.895 40.5132 17.9711L51.8724 22.1016C51.9745 22.1386 52.0844 22.1489 52.1916 22.1313C52.2988 22.1138 52.3997 22.0691 52.4846 22.0014C52.5155 21.9907 52.5453 21.9774 52.5739 21.9616C54.3821 20.95 56.3801 20.3232 58.4422 20.1208C58.7726 20.0904 59.1042 20.1624 59.3923 20.3269C59.6803 20.4915 59.9108 20.7406 60.0524 21.0405V21.0529L60.0621 21.068C60.2076 21.3725 60.2545 21.7149 60.1962 22.0473C60.1379 22.3798 59.9773 22.6857 59.7367 22.9225Z" fill="#EE7532" stroke="#EE7532" stroke-width="1.5"/>
</svg>
