<svg width="342" height="24" viewBox="0 0 342 24" fill="none" xmlns="http://www.w3.org/2000/svg">
<circle cx="12" cy="12" r="11" stroke="#9A979A" stroke-width="2"/>
<path d="M57.18 14.7H51.56L50.14 18.5H48.26L53.52 5.16H55.34L60.58 18.5H58.6L57.18 14.7ZM54.38 7.16L52.12 13.18H56.62L54.38 7.16ZM62.092 9.22H63.672L63.752 10.78C64.0854 10.2333 64.512 9.81333 65.032 9.52C65.552 9.22667 66.1254 9.08 66.752 9.08C67.1387 9.08 67.492 9.13333 67.812 9.24L67.432 10.8C67.1654 10.7067 66.8787 10.66 66.572 10.66C65.772 10.66 65.1054 10.9267 64.572 11.46C64.0387 11.9933 63.772 12.6867 63.772 13.54V18.5H62.092V9.22ZM68.4856 15.78C68.4856 14.7933 68.8523 14.02 69.5856 13.46C70.319 12.8867 71.3656 12.6 72.7256 12.6C73.0323 12.6 73.3723 12.62 73.7456 12.66C74.1323 12.6867 74.5056 12.7267 74.8656 12.78V12.36C74.8656 11.04 74.0656 10.38 72.4656 10.38C71.399 10.38 70.4856 10.6733 69.7256 11.26L68.9256 10.1C69.939 9.32667 71.1456 8.94 72.5456 8.94C73.7856 8.94 74.7456 9.23333 75.4256 9.82C76.119 10.4067 76.4656 11.22 76.4656 12.26V18.5H74.9656L74.9056 17.26C74.5856 17.74 74.1456 18.1133 73.5856 18.38C73.0256 18.6467 72.4123 18.78 71.7456 18.78C70.7723 18.78 69.9856 18.5133 69.3856 17.98C68.7856 17.4333 68.4856 16.7 68.4856 15.78ZM70.1256 15.76C70.1256 16.2933 70.299 16.7067 70.6456 17C70.9923 17.2933 71.4656 17.44 72.0656 17.44C72.5856 17.44 73.059 17.3333 73.4856 17.12C73.9123 16.9067 74.2456 16.6267 74.4856 16.28C74.739 15.9333 74.8656 15.5533 74.8656 15.14V14.06C74.519 13.9933 74.1723 13.9467 73.8256 13.92C73.479 13.8933 73.1656 13.88 72.8856 13.88C71.9923 13.88 71.3056 14.04 70.8256 14.36C70.359 14.68 70.1256 15.1467 70.1256 15.76ZM78.928 5.16H80.608V10.32C81.248 9.4 82.2346 8.94 83.568 8.94C84.4346 8.94 85.188 9.14 85.828 9.54C86.468 9.92667 86.9613 10.4733 87.308 11.18C87.668 11.8867 87.848 12.7133 87.848 13.66C87.848 14.7 87.628 15.6067 87.188 16.38C86.7613 17.14 86.148 17.7333 85.348 18.16C84.548 18.5733 83.608 18.78 82.528 18.78C81.9546 18.78 81.328 18.72 80.648 18.6C79.968 18.4933 79.3946 18.3533 78.928 18.18V5.16ZM86.128 13.7C86.128 12.7133 85.8746 11.92 85.368 11.32C84.8746 10.72 84.2013 10.42 83.348 10.42C82.548 10.42 81.888 10.6867 81.368 11.22C80.8613 11.74 80.608 12.4133 80.608 13.24V17.04C81.2213 17.2133 81.828 17.3 82.428 17.3C83.588 17.3 84.4946 16.9867 85.148 16.36C85.8013 15.72 86.128 14.8333 86.128 13.7ZM89.9045 9.22H91.5845V18.5H89.9045V9.22ZM89.8045 5.6H91.6845V7.52H89.8045V5.6ZM93.6438 13.9C93.6438 12.94 93.8571 12.0867 94.2838 11.34C94.7238 10.5933 95.3238 10.0067 96.0838 9.58C96.8438 9.15333 97.7038 8.94 98.6638 8.94C100.09 8.94 101.27 9.46 102.204 10.5L101.104 11.56C100.81 11.2 100.444 10.92 100.004 10.72C99.5771 10.52 99.1104 10.42 98.6038 10.42C97.9771 10.42 97.4171 10.5733 96.9238 10.88C96.4438 11.1733 96.0638 11.58 95.7837 12.1C95.5038 12.62 95.3638 13.2133 95.3638 13.88C95.3638 14.5467 95.5038 15.14 95.7837 15.66C96.0638 16.1667 96.4438 16.5667 96.9238 16.86C97.4171 17.1533 97.9838 17.3 98.6238 17.3C99.6638 17.3 100.524 16.9067 101.204 16.12L102.244 17.22C101.324 18.26 100.11 18.78 98.6038 18.78C97.6438 18.78 96.7904 18.5733 96.0438 18.16C95.2971 17.7333 94.7104 17.1533 94.2838 16.42C93.8571 15.6867 93.6438 14.8467 93.6438 13.9Z" fill="#313140"/>
</svg>
