<svg width="24" height="24" viewBox="0 0 24 24" fill="none" xmlns="http://www.w3.org/2000/svg">
<g id="Group">
<path id="Vector" d="M12.0004 14.9091C13.607 14.9091 14.9095 13.6067 14.9095 12C14.9095 10.3934 13.607 9.09094 12.0004 9.09094C10.3938 9.09094 9.09131 10.3934 9.09131 12C9.09131 13.6067 10.3938 14.9091 12.0004 14.9091Z" stroke="#EE7532" stroke-width="2" stroke-linecap="round" stroke-linejoin="round"/>
<path id="Vector_2" d="M19.1759 14.9091C19.0468 15.2016 19.0083 15.526 19.0654 15.8406C19.1224 16.1552 19.2724 16.4454 19.4959 16.674L19.5541 16.7322C19.7344 16.9123 19.8775 17.1262 19.9751 17.3616C20.0727 17.597 20.1229 17.8494 20.1229 18.1043C20.1229 18.3591 20.0727 18.6115 19.9751 18.847C19.8775 19.0824 19.7344 19.2963 19.5541 19.4764C19.374 19.6567 19.1601 19.7998 18.9247 19.8974C18.6892 19.995 18.4368 20.0452 18.182 20.0452C17.9271 20.0452 17.6747 19.995 17.4393 19.8974C17.2039 19.7998 16.99 19.6567 16.8099 19.4764L16.7517 19.4182C16.5231 19.1947 16.2329 19.0447 15.9183 18.9877C15.6037 18.9306 15.2793 18.9691 14.9868 19.0982C14.7 19.2211 14.4554 19.4252 14.2831 19.6854C14.1108 19.9456 14.0184 20.2504 14.0171 20.5625V20.7273C14.0171 21.2417 13.8128 21.735 13.4491 22.0987C13.0854 22.4624 12.5921 22.6667 12.0777 22.6667C11.5634 22.6667 11.0701 22.4624 10.7064 22.0987C10.3427 21.735 10.1383 21.2417 10.1383 20.7273V20.64C10.1308 20.3191 10.0269 20.0078 9.84017 19.7467C9.6534 19.4855 9.39239 19.2866 9.09107 19.1758C8.7986 19.0467 8.47416 19.0082 8.15959 19.0652C7.84503 19.1223 7.55476 19.2722 7.32622 19.4958L7.26804 19.554C7.08792 19.7343 6.87403 19.8773 6.63859 19.9749C6.40315 20.0725 6.15079 20.1228 5.89592 20.1228C5.64105 20.1228 5.38869 20.0725 5.15325 19.9749C4.91781 19.8773 4.70392 19.7343 4.5238 19.554C4.34348 19.3739 4.20043 19.16 4.10283 18.9245C4.00524 18.6891 3.955 18.4367 3.955 18.1819C3.955 17.927 4.00524 17.6746 4.10283 17.4392C4.20043 17.2037 4.34348 16.9899 4.5238 16.8097L4.58198 16.7516C4.80553 16.523 4.95549 16.2328 5.01253 15.9182C5.06957 15.6036 5.03106 15.2792 4.90198 14.9867C4.77906 14.6999 4.57496 14.4553 4.3148 14.283C4.05464 14.1107 3.74977 14.0183 3.43774 14.017H3.27289C2.75853 14.017 2.26524 13.8127 1.90153 13.449C1.53782 13.0853 1.3335 12.592 1.3335 12.0776C1.3335 11.5633 1.53782 11.07 1.90153 10.7063C2.26524 10.3426 2.75853 10.1382 3.27289 10.1382H3.36016C3.68113 10.1307 3.99241 10.0268 4.25354 9.84005C4.51468 9.65328 4.71358 9.39227 4.8244 9.09095C4.95349 8.79847 4.99199 8.47403 4.93495 8.15947C4.87792 7.8449 4.72796 7.55464 4.50441 7.3261L4.44622 7.26792C4.26591 7.0878 4.12286 6.87391 4.02526 6.63847C3.92766 6.40303 3.87742 6.15066 3.87742 5.8958C3.87742 5.64093 3.92766 5.38856 4.02526 5.15313C4.12286 4.91769 4.26591 4.70379 4.44622 4.52368C4.62634 4.34336 4.84023 4.20031 5.07567 4.10271C5.31111 4.00511 5.56348 3.95488 5.81834 3.95488C6.07321 3.95488 6.32558 4.00511 6.56102 4.10271C6.79646 4.20031 7.01035 4.34336 7.19047 4.52368L7.24865 4.58186C7.47718 4.80541 7.76745 4.95537 8.08202 5.01241C8.39658 5.06945 8.72102 5.03094 9.0135 4.90186H9.09107C9.37788 4.77894 9.62248 4.57483 9.79477 4.31467C9.96707 4.05451 10.0595 3.74965 10.0608 3.43762V3.27277C10.0608 2.75841 10.2651 2.26512 10.6288 1.90141C10.9925 1.5377 11.4858 1.33337 12.0002 1.33337C12.5145 1.33337 13.0078 1.5377 13.3715 1.90141C13.7352 2.26512 13.9396 2.75841 13.9396 3.27277V3.36004C13.9408 3.67208 14.0333 3.97694 14.2056 4.2371C14.3778 4.49726 14.6224 4.70136 14.9093 4.82428C15.2017 4.95336 15.5262 4.99187 15.8407 4.93483C16.1553 4.8778 16.4456 4.72783 16.6741 4.50428L16.7323 4.4461C16.9124 4.26578 17.1263 4.12274 17.3617 4.02514C17.5972 3.92754 17.8495 3.8773 18.1044 3.8773C18.3593 3.8773 18.6116 3.92754 18.8471 4.02514C19.0825 4.12274 19.2964 4.26578 19.4765 4.4461C19.6568 4.62622 19.7999 4.84011 19.8975 5.07555C19.9951 5.31099 20.0453 5.56336 20.0453 5.81822C20.0453 6.07309 19.9951 6.32546 19.8975 6.56089C19.7999 6.79633 19.6568 7.01023 19.4765 7.19034L19.4183 7.24853C19.1948 7.47706 19.0448 7.76733 18.9878 8.08189C18.9308 8.39646 18.9693 8.7209 19.0983 9.01337V9.09095C19.2213 9.37776 19.4254 9.62236 19.6855 9.79465C19.9457 9.96694 20.2506 10.0594 20.5626 10.0606H20.7274C21.2418 10.0606 21.7351 10.265 22.0988 10.6287C22.4625 10.9924 22.6668 11.4857 22.6668 12C22.6668 12.5144 22.4625 13.0077 22.0988 13.3714C21.7351 13.7351 21.2418 13.9394 20.7274 13.9394H20.6402C20.3281 13.9407 20.0233 14.0331 19.7631 14.2054C19.5029 14.3777 19.2988 14.6223 19.1759 14.9091Z" stroke="#EE7532" stroke-width="2" stroke-linecap="round" stroke-linejoin="round"/>
</g>
</svg>
